<svg width="1641" height="463" viewBox="0 0 1641 463" fill="none" xmlns="http://www.w3.org/2000/svg">
<path d="M21.9495 210.452C7.41059 196.506 0.141113 181.522 0.141113 165.499C0.141113 153.038 4.14674 142.207 12.158 133.009C27.2904 115.207 48.5054 106.305 75.803 106.305H285.431C298.486 106.008 309.91 104.97 319.701 103.19C329.493 101.113 335.724 99.4808 338.394 98.2939V175.736H333.944V170.395C333.944 157.043 329.938 146.213 321.927 137.905C313.915 129.597 303.085 125.295 289.437 124.998H229.352V386.254C229.946 396.936 234.841 404.947 244.039 410.288C248.193 412.662 252.793 413.849 257.837 413.849H263.623V418.299H128.321V413.849H134.107C141.822 413.849 148.349 411.178 153.69 405.837C159.328 400.496 162.295 394.117 162.592 386.699V124.998H75.803C63.6378 124.998 52.9561 127.223 43.758 131.674C25.065 140.576 15.7186 154.521 15.7186 173.511C15.7186 184.786 19.2791 196.358 26.4002 208.226L21.9495 210.452Z" fill="white"/>
<path d="M625.816 413.849H629.821V418.299H487.844V413.849H491.85C498.377 413.849 503.125 411.92 506.092 408.063C509.356 403.909 510.988 400.051 510.988 396.491C510.988 392.93 510.246 389.37 508.762 385.809L486.954 331.066H382.807L359.664 385.809C358.18 389.666 357.438 393.375 357.438 396.936C357.438 400.2 358.922 403.909 361.889 408.063C365.153 411.92 370.197 413.849 377.021 413.849H380.582V418.299H285.337V413.849H289.343C296.167 413.849 302.992 411.772 309.816 407.618C316.64 403.464 322.278 397.233 326.729 388.925L429.54 156.153C443.485 126.778 450.903 107.344 451.793 97.8488H455.799L587.985 388.034C592.435 396.639 598.073 403.167 604.897 407.618C611.722 411.772 618.694 413.849 625.816 413.849ZM390.374 312.373H479.388L436.216 202.885L390.374 312.373Z" fill="white"/>
<path d="M961.763 111.201C954.346 111.201 947.966 113.871 942.625 119.212C937.285 124.256 934.466 130.487 934.169 137.905V367.561C934.169 387.441 935.504 404.205 938.175 417.854L939.51 424.53H935.504L710.744 210.452V387.144C710.744 394.562 713.414 400.942 718.755 406.282C724.096 411.327 730.475 413.849 737.893 413.849H746.35V418.299H611.493V413.849H619.505C627.219 413.849 633.747 411.327 639.088 406.282C644.429 400.942 647.099 394.414 647.099 386.699V155.708C647.099 136.125 645.764 119.806 643.093 106.75L642.203 100.074H646.209L870.969 314.153V138.35C870.673 130.636 867.854 124.256 862.513 119.212C857.172 113.871 850.793 111.201 843.375 111.201H835.364V106.75H970.22V111.201H961.763Z" fill="white"/>
<path d="M1005.53 291.899C993.658 310.889 987.724 330.324 987.724 350.204C987.724 371.864 995.586 391.595 1011.31 409.398C1019.92 419.486 1030.75 427.349 1043.8 432.987C1057.15 438.624 1071.69 441.443 1087.42 441.443C1103.15 441.443 1117.24 438.476 1129.7 432.542C1154.62 420.376 1167.09 400.496 1167.09 372.902C1167.09 362.517 1163.53 351.539 1156.41 339.967C1149.58 328.395 1139.2 318.01 1125.25 308.812L1049.59 258.074C1020.21 239.678 1005.53 215.941 1005.53 186.863C1005.53 183.896 1005.67 180.929 1005.97 177.961C1007.75 155.115 1016.8 136.57 1033.12 122.328C1049.74 107.789 1071.84 100.519 1099.44 100.519C1116.35 100.519 1136.82 102.003 1160.86 104.97H1188.45L1182.66 170.395H1178.66C1178.36 154.966 1172.43 142.653 1160.86 133.454C1149.28 123.96 1134 119.212 1115.01 119.212C1091.87 119.212 1075.11 126.185 1064.72 140.131C1059.68 147.252 1057.15 154.966 1057.15 163.274C1057.15 171.582 1059.68 178.703 1064.72 184.637C1069.76 190.275 1077.78 196.506 1088.75 203.33L1171.98 257.629C1188.9 268.607 1202.1 281.514 1211.59 296.35C1222.87 313.856 1228.51 331.807 1228.51 350.204C1228.51 362.072 1225.98 374.682 1220.94 388.034C1216.19 401.09 1208.18 413.255 1196.91 424.53C1185.93 435.805 1171.69 445.003 1154.18 452.125C1136.67 459.246 1117.24 462.806 1095.88 462.806C1074.81 462.806 1055.67 459.097 1038.46 451.68C1006.71 438.327 986.537 415.035 977.932 381.804C976.152 374.682 975.262 367.265 975.262 359.55C975.262 334.626 984.015 311.037 1001.52 288.784L1005.53 291.899Z" fill="white"/>
<path d="M1628.2 16.401C1632.06 16.401 1636.06 16.5494 1640.22 16.8461V21.2968C1605.2 23.9672 1579.98 40.5832 1564.56 71.1446C1554.47 91.0244 1549.42 116.245 1549.42 146.807V305.697C1548.83 343.082 1536.81 372.309 1513.37 393.375C1489.93 414.145 1456.4 424.53 1412.79 424.53C1369.47 424.53 1334.9 413.849 1309.08 392.485C1283.27 370.825 1270.51 342.044 1270.81 306.142V133.009C1270.81 126.778 1268.44 121.586 1263.69 117.432C1259.24 113.278 1253.75 111.201 1247.22 111.201H1240.1V106.75H1368.28V111.201H1361.16C1351.96 111.201 1345.14 114.761 1340.68 121.883C1338.61 125.146 1337.57 128.707 1337.57 132.564V302.581C1337.57 334.033 1345.73 358.957 1362.05 377.353C1378.37 395.749 1399.88 404.947 1426.58 404.947C1426.88 404.947 1427.03 404.947 1427.03 404.947C1427.03 404.947 1427.18 404.947 1427.47 404.947C1453.88 404.947 1475.54 396.342 1492.45 379.133C1509.37 361.924 1517.82 338.335 1517.82 308.367V146.807C1517.82 106.75 1528.36 75.0019 1549.42 51.5615C1570.79 28.1212 1597.05 16.401 1628.2 16.401Z" fill="white"/>
<path d="M839.214 51.0142C823.948 51.0142 805.862 45.7996 784.955 35.3705C763.052 24.2896 757.181 18.7491 731.13 18.7491C705.08 18.7491 683.478 35.3705 676.469 48.828C676.471 32.4373 682.635 22.472 693.361 13.5345C704.644 4.62629 719.412 0.17218 737.664 0.17218C752.93 0.17218 771.182 5.49538 792.421 16.1418C814.656 27.0055 828.221 32.4373 849.861 32.4373C875.906 32.4373 888.74 18.7491 894.967 1.80173C899.385 41.2281 867.63 51.0142 839.214 51.0142Z" fill="white"/>
</svg>
