<svg width="91" height="91" viewBox="0 0 91 91" fill="none" xmlns="http://www.w3.org/2000/svg">
<circle cx="45.79" cy="45.9721" r="44.5097" fill="white"/>
<circle cx="45.79" cy="45.9721" r="44.5097" stroke="#181D24"/>
<circle cx="45.79" cy="45.9721" r="44.5097" stroke="#181D24"/>
<circle cx="45.79" cy="45.9721" r="44.5097" stroke="#181D24"/>
<path d="M27.4141 45.9712L57.8607 45.9712L72.1372 45.9712C67.3784 46.816 57.8607 49.6884 57.8607 54.4196" stroke="#181D24" stroke-width="0.904162"/>
<path d="M27.4141 45.9712L57.8607 45.9712L72.1372 45.9712C67.3784 46.816 57.8607 49.6884 57.8607 54.4196" stroke="#181D24" stroke-width="0.904162"/>
<path d="M27.4141 45.9722L57.8607 45.9722L72.1372 45.9722C67.3784 45.1274 57.8607 42.2549 57.8607 37.5238" stroke="#181D24" stroke-width="0.904162"/>
<path d="M27.4141 45.9722L57.8607 45.9722L72.1372 45.9722C67.3784 45.1274 57.8607 42.2549 57.8607 37.5238" stroke="#181D24" stroke-width="0.904162"/>
<circle cx="23.7195" cy="45.9729" r="3.82453" transform="rotate(90 23.7195 45.9729)" stroke="#181D24" stroke-width="0.904162"/>
<circle cx="23.7195" cy="45.9729" r="3.82453" transform="rotate(90 23.7195 45.9729)" stroke="#181D24" stroke-width="0.904162"/>
</svg>
