<svg width="215" height="61" viewBox="0 0 215 61" fill="none" xmlns="http://www.w3.org/2000/svg">
<path d="M3.06568 27.6073C1.16935 25.7884 0.221191 23.834 0.221191 21.7442C0.221191 20.1187 0.743649 18.7062 1.78856 17.5064C3.76229 15.1844 6.52938 14.0234 10.0898 14.0234H37.4318C39.1346 13.9847 40.6246 13.8492 41.9017 13.617C43.1788 13.3461 43.9915 13.1333 44.3398 12.9785V23.0793H43.7593V22.3827C43.7593 20.6412 43.2369 19.2286 42.1919 18.145C41.147 17.0614 39.7345 16.5002 37.9542 16.4615H30.1174V50.5374C30.1948 51.9306 30.8333 52.9755 32.033 53.6721C32.5749 53.9817 33.1747 54.1365 33.8326 54.1365H34.5873V54.717H16.9398V54.1365H17.6945C18.7007 54.1365 19.5521 53.7882 20.2487 53.0916C20.984 52.395 21.371 51.5629 21.4097 50.5954V16.4615H10.0898C8.50311 16.4615 7.10989 16.7518 5.91017 17.3323C3.47204 18.4933 2.25297 20.3122 2.25297 22.7891C2.25297 24.2597 2.71738 25.769 3.64619 27.317L3.06568 27.6073Z" fill="white"/>
<path d="M81.8284 54.1365H82.3509V54.717H63.8327V54.1365H64.3551C65.2065 54.1365 65.8257 53.885 66.2127 53.3819C66.6384 52.8401 66.8513 52.3369 66.8513 51.8725C66.8513 51.4081 66.7545 50.9437 66.561 50.4793L63.7166 43.3391H50.1327L47.114 50.4793C46.9205 50.9824 46.8238 51.4662 46.8238 51.9306C46.8238 52.3563 47.0173 52.8401 47.4043 53.3819C47.83 53.885 48.4879 54.1365 49.378 54.1365H49.8424V54.717H37.4195V54.1365H37.942C38.8321 54.1365 39.7222 53.8656 40.6123 53.3238C41.5024 52.782 42.2377 51.9693 42.8183 50.8857L56.228 20.5251C58.0469 16.6937 59.0144 14.1588 59.1305 12.9204H59.653L76.8941 50.7696C77.4746 51.8919 78.2099 52.7433 79.1 53.3238C79.9901 53.8656 80.8996 54.1365 81.8284 54.1365ZM51.1195 40.9009H62.7297L57.0988 26.6204L51.1195 40.9009Z" fill="white"/>
<path d="M125.646 14.662C124.679 14.662 123.847 15.0103 123.15 15.7069C122.454 16.3648 122.086 17.1775 122.047 18.145V48.0992C122.047 50.6922 122.221 52.8788 122.57 54.659L122.744 55.5297H122.221L92.9057 27.6073V50.6535C92.9057 51.621 93.254 52.453 93.9506 53.1497C94.6472 53.8076 95.4793 54.1365 96.4468 54.1365H97.5498V54.717H79.9604V54.1365H81.0053C82.0115 54.1365 82.8629 53.8076 83.5595 53.1497C84.2561 52.453 84.6044 51.6016 84.6044 50.5954V20.467C84.6044 17.9128 84.4303 15.7843 84.082 14.0814L83.9659 13.2107H84.4883L113.804 41.1331V18.2031C113.765 17.1968 113.398 16.3648 112.701 15.7069C112.004 15.0103 111.172 14.662 110.205 14.662H109.16V14.0814H126.749V14.662H125.646Z" fill="white"/>
<path d="M131.354 38.2306C129.806 40.7074 129.032 43.2423 129.032 45.8353C129.032 48.6604 130.058 51.234 132.109 53.556C133.231 54.8718 134.644 55.8974 136.347 56.6327C138.088 57.368 139.985 57.7357 142.036 57.7357C144.087 57.7357 145.925 57.3487 147.551 56.5747C150.801 54.9879 152.427 52.395 152.427 48.7958C152.427 47.4413 151.962 46.0094 151.034 44.5001C150.144 42.9908 148.789 41.6362 146.97 40.4365L137.101 33.8187C133.27 31.4193 131.354 28.3232 131.354 24.5306C131.354 24.1436 131.374 23.7566 131.412 23.3696C131.645 20.3896 132.825 17.9708 134.954 16.1132C137.121 14.2169 140.004 13.2687 143.603 13.2687C145.809 13.2687 148.479 13.4622 151.614 13.8492H155.213L154.459 22.3827H153.936C153.897 20.3703 153.123 18.7642 151.614 17.5645C150.105 16.3261 148.112 15.7069 145.635 15.7069C142.616 15.7069 140.43 16.6163 139.075 18.4353C138.417 19.3641 138.088 20.3703 138.088 21.4539C138.088 22.5375 138.417 23.4663 139.075 24.2403C139.733 24.9757 140.778 25.7884 142.21 26.6785L153.065 33.7607C155.271 35.1926 156.993 36.8761 158.232 38.8111C159.703 41.0944 160.438 43.4358 160.438 45.8353C160.438 47.3833 160.109 49.028 159.451 50.7696C158.832 52.4724 157.787 54.0591 156.316 55.5297C154.884 57.0004 153.027 58.2001 150.743 59.1289C148.46 60.0577 145.925 60.5221 143.139 60.5221C140.391 60.5221 137.895 60.0384 135.65 59.0708C131.509 57.3293 128.878 54.2913 127.755 49.9569C127.523 49.028 127.407 48.0605 127.407 47.0543C127.407 43.8035 128.549 40.7268 130.832 37.8242L131.354 38.2306Z" fill="white"/>
<path d="M212.57 2.29713C213.073 2.29713 213.596 2.31648 214.138 2.35518V2.93569C209.571 3.28399 206.281 5.45122 204.269 9.43738C202.953 12.0303 202.295 15.3199 202.295 19.306V40.0302C202.218 44.9064 200.65 48.7184 197.593 51.4662C194.536 54.1752 190.163 55.5297 184.474 55.5297C178.823 55.5297 174.315 54.1365 170.948 51.3501C167.581 48.5249 165.917 44.771 165.955 40.0882V17.5064C165.955 16.6937 165.646 16.0165 165.027 15.4747C164.446 14.9329 163.73 14.662 162.879 14.662H161.95V14.0814H178.669V14.662H177.74C176.54 14.662 175.65 15.1264 175.069 16.0552C174.798 16.4809 174.663 16.9453 174.663 17.4484V39.6238C174.663 43.7261 175.727 46.9769 177.856 49.3764C179.984 51.7758 182.79 52.9755 186.273 52.9755C186.312 52.9755 186.331 52.9755 186.331 52.9755C186.331 52.9755 186.351 52.9755 186.389 52.9755C189.834 52.9755 192.659 51.8532 194.865 49.6086C197.071 47.3639 198.174 44.2872 198.174 40.3785V19.306C198.174 14.0814 199.547 9.94048 202.295 6.88314C205.082 3.8258 208.507 2.29713 212.57 2.29713Z" fill="white"/>
<path d="M109.662 6.81175C107.671 6.81175 105.312 6.13161 102.585 4.77133C99.7282 3.32603 98.9625 2.60338 95.5647 2.60338C92.1669 2.60338 89.3494 4.77133 88.4352 6.5266C88.4354 4.38875 89.2394 3.08896 90.6384 1.92324C92.11 0.761338 94.0362 0.180386 96.4169 0.180386C98.408 0.180386 100.789 0.874695 103.559 2.26331C106.459 3.68027 108.228 4.38875 111.051 4.38875C114.448 4.38875 116.122 2.60338 116.934 0.392929C117.51 5.53534 113.369 6.81175 109.662 6.81175Z" fill="white"/>
</svg>
