<svg width="261" height="271" viewBox="0 0 261 271" fill="none" xmlns="http://www.w3.org/2000/svg">
<path d="M154.424 226.864L153.592 227.117C153.376 226.037 153.389 225.068 153.629 224.209C153.872 223.357 154.324 222.628 154.986 222.023C155.644 221.427 156.493 220.97 157.535 220.654C158.364 220.402 159.165 220.331 159.939 220.44C160.709 220.558 161.425 220.835 162.089 221.27C162.747 221.713 163.331 222.303 163.839 223.04C164.347 223.776 164.75 224.638 165.05 225.624L165.687 227.721C165.988 228.715 166.132 229.655 166.117 230.543C166.104 231.438 165.947 232.249 165.644 232.977C165.336 233.714 164.891 234.343 164.308 234.865C163.721 235.395 163.006 235.788 162.163 236.044C161.142 236.354 160.192 236.444 159.315 236.314C158.437 236.183 157.659 235.828 156.982 235.248C156.306 234.675 155.758 233.88 155.337 232.863L156.169 232.61C156.536 233.449 156.995 234.11 157.546 234.594C158.093 235.087 158.732 235.394 159.465 235.516C160.198 235.637 161.021 235.56 161.932 235.283C162.651 235.065 163.256 234.727 163.747 234.272C164.239 233.823 164.612 233.276 164.865 232.63C165.12 231.991 165.251 231.278 165.259 230.489C165.262 229.71 165.129 228.879 164.86 227.995L164.217 225.877C163.953 225.007 163.601 224.242 163.161 223.582C162.724 222.929 162.223 222.404 161.661 222.006C161.101 221.615 160.489 221.362 159.826 221.249C159.165 221.143 158.478 221.198 157.766 221.415C156.854 221.692 156.12 222.072 155.563 222.555C155.009 223.045 154.638 223.648 154.451 224.364C154.257 225.081 154.248 225.914 154.424 226.864ZM151.788 238.43L150.881 238.543L142.97 225.018L138.6 240.065L137.694 240.177L142.487 223.823L143.158 223.739L151.788 238.43ZM152.054 238.397L151.244 238.498L150.161 230.2L149.267 222.982L150.13 222.875L152.054 238.397ZM138.217 240.112L137.406 240.213L135.483 224.691L136.346 224.584L137.241 231.801L138.217 240.112ZM121.029 233.072L121.134 230.991C121.187 229.947 121.374 229.003 121.696 228.158C122.012 227.314 122.446 226.597 122.999 226.008C123.552 225.42 124.202 224.976 124.948 224.676C125.695 224.384 126.525 224.261 127.441 224.307C128.335 224.352 129.142 224.558 129.862 224.924C130.582 225.298 131.191 225.805 131.689 226.447C132.18 227.088 132.547 227.846 132.79 228.718C133.025 229.591 133.117 230.549 133.064 231.593L132.959 233.674C132.906 234.726 132.719 235.67 132.397 236.507C132.067 237.351 131.626 238.067 131.073 238.656C130.52 239.245 129.87 239.685 129.124 239.977C128.37 240.276 127.546 240.403 126.652 240.358C125.737 240.312 124.923 240.102 124.21 239.73C123.497 239.364 122.895 238.86 122.404 238.219C121.906 237.577 121.539 236.82 121.303 235.947C121.067 235.082 120.976 234.124 121.029 233.072ZM121.992 231.034L121.886 233.137C121.84 234.053 121.912 234.892 122.103 235.654C122.294 236.424 122.597 237.092 123.013 237.658C123.422 238.223 123.934 238.669 124.549 238.994C125.163 239.326 125.878 239.512 126.693 239.554C127.487 239.594 128.206 239.479 128.851 239.211C129.495 238.949 130.049 238.558 130.513 238.036C130.976 237.515 131.342 236.881 131.609 236.134C131.876 235.395 132.032 234.567 132.078 233.652L132.184 231.549C132.231 230.626 132.159 229.78 131.968 229.01C131.771 228.24 131.467 227.572 131.058 227.007C130.65 226.441 130.138 225.992 129.524 225.66C128.902 225.335 128.194 225.152 127.4 225.112C126.585 225.071 125.855 225.181 125.211 225.442C124.566 225.711 124.012 226.106 123.548 226.628C123.085 227.149 122.723 227.784 122.463 228.531C122.196 229.277 122.039 230.112 121.992 231.034ZM111.59 238.287L114.627 222.944L115.47 223.111L112.433 238.454L111.59 238.287ZM106.131 237.206L106.285 236.427L118.045 238.755L117.891 239.535L106.131 237.206ZM100.772 225.844L105.156 227.365L104.896 228.116L100.512 226.595C99.5644 226.266 98.7391 226.154 98.0357 226.258C97.33 226.37 96.7502 226.642 96.2964 227.076C95.8335 227.514 95.4905 228.055 95.2674 228.697C95.0373 229.36 94.9658 230.014 95.053 230.658C95.1334 231.3 95.4149 231.887 95.8975 232.418C96.3778 232.956 97.0916 233.39 98.0387 233.719L101.997 235.092L106.865 221.068L107.687 221.353L102.558 236.129L97.7781 234.47C96.7159 234.101 95.8896 233.609 95.2993 232.995C94.7022 232.379 94.3349 231.679 94.1973 230.896C94.0575 230.119 94.1378 229.298 94.4384 228.432C94.7437 227.553 95.1905 226.855 95.779 226.339C96.3651 225.83 97.0765 225.527 97.9135 225.431C98.7504 225.335 99.7033 225.473 100.772 225.844ZM87.2317 213.515L87.59 212.805L95.7314 216.915L95.3732 217.625L87.2317 213.515ZM88.3374 230.703L95.3862 216.741L96.1629 217.133L89.1141 231.095L88.3374 230.703ZM84.7581 220.846L85.1212 220.127L92.2845 223.743L91.9214 224.462L84.7581 220.846ZM80.5603 226.777L80.9186 226.067L89.0408 230.168L88.6826 230.877L80.5603 226.777ZM72.938 221.81L81.7773 208.907L82.4862 209.392L73.647 222.296L72.938 221.81ZM68.3474 218.665L68.7966 218.01L78.6869 224.785L78.2376 225.441L68.3474 218.665ZM69.8203 210.75L66.5873 207.791C65.7631 207.036 65.1944 206.268 64.881 205.486C64.5676 204.704 64.4885 203.948 64.6437 203.216C64.7936 202.479 65.1562 201.797 65.7316 201.168C66.1619 200.698 66.6379 200.342 67.1594 200.101C67.6709 199.861 68.2156 199.743 68.7937 199.748C69.3665 199.748 69.9581 199.886 70.5685 200.163C71.1789 200.44 71.7931 200.862 72.4112 201.428L75.9533 204.67L65.3934 216.207L64.7515 215.62L74.7747 204.668L71.8745 202.014C71.1349 201.337 70.4291 200.91 69.7572 200.731C69.0752 200.554 68.4472 200.566 67.8733 200.769C67.2892 200.972 66.7844 201.307 66.359 201.771C65.948 202.22 65.6719 202.74 65.5307 203.329C65.3842 203.913 65.4319 204.534 65.674 205.193C65.9059 205.852 66.3916 206.519 67.1312 207.196L70.3643 210.156L69.8203 210.75ZM54.5716 192.872L57.351 196.642L56.7326 197.124L54.4058 193.968C53.8873 193.265 53.3545 192.741 52.8073 192.398C52.2601 192.054 51.7049 191.898 51.1417 191.931C50.5728 191.967 50.0001 192.198 49.4237 192.623C48.8473 193.048 48.4623 193.528 48.2689 194.062C48.0754 194.596 48.0706 195.187 48.2544 195.834C48.4339 196.476 48.802 197.175 49.3588 197.93L51.3987 200.696L63.3477 191.887L63.8641 192.587L51.2752 201.869L48.7189 198.401C48.2472 197.762 47.8877 197.141 47.6406 196.541C47.3934 195.94 47.2756 195.364 47.2873 194.812C47.289 194.26 47.4243 193.737 47.6933 193.245C47.9623 192.753 48.3764 192.301 48.9355 191.889C49.4543 191.506 49.9977 191.266 50.5657 191.167C51.1337 191.069 51.6948 191.118 52.2489 191.314C52.7931 191.509 53.3001 191.865 53.7699 192.382L54.5716 192.872ZM60.7915 188.419L63.6155 192.25L62.7525 192.419L60.1516 188.891C59.6544 188.217 59.117 187.723 58.5395 187.41C57.9519 187.096 57.3521 186.965 56.7401 187.015C56.1181 187.065 55.5102 187.308 54.9165 187.746C54.4381 188.099 54.0821 188.539 53.8486 189.067C53.6094 189.6 53.5408 190.188 53.6429 190.834C53.7393 191.483 54.0489 192.163 54.5716 192.872L56.1271 194.981L55.4831 195.429L53.2456 192.395L53.4003 192.134C53.0599 191.539 52.8788 190.926 52.8567 190.292C52.8304 189.653 52.95 189.049 53.2153 188.48C53.4749 187.915 53.8641 187.441 54.3828 187.058C55.138 186.502 55.8981 186.199 56.6634 186.151C57.4287 186.103 58.1656 186.276 58.8743 186.67C59.5787 187.058 60.2177 187.641 60.7915 188.419ZM55.0855 182.594L38.1005 180.619L37.6965 179.848L51.549 172.586L51.953 173.357L39.423 179.926L56.427 181.891L56.831 182.662L42.9785 189.924L42.5745 189.153L55.0855 182.594ZM45.7487 158.578L46.5028 158.327L50.4815 170.249L49.7275 170.5L45.7487 158.578ZM49.6425 170.246L53.9731 168.8L54.2485 169.626L49.9179 171.071L49.6425 170.246ZM45.5209 157.896L49.8515 156.45L50.1304 157.286L45.7997 158.731L45.5209 157.896ZM32.0882 164.542L32.8423 164.29L35.1411 171.178L34.3871 171.43L32.0882 164.542ZM31.8944 163.961L46.7306 159.009L47.0026 159.825L32.1664 164.776L31.8944 163.961ZM34.4959 171.756L34.2204 170.931L39.2814 169.502C40.2845 169.228 41.239 169.022 42.1448 168.886C43.0416 168.745 43.8817 168.661 44.6653 168.634C45.4398 168.602 46.1498 168.614 46.7952 168.67C47.4339 168.729 47.9978 168.824 48.487 168.955C48.974 169.08 49.3783 169.228 49.6999 169.4C50.0193 169.565 50.2435 169.739 50.3727 169.923L50.6039 170.616L49.8499 170.867L49.6323 170.215C49.4284 170.102 49.0751 169.971 48.5723 169.821C48.0627 169.674 47.3991 169.564 46.5815 169.489C45.7549 169.41 44.7607 169.429 43.599 169.545C42.4282 169.656 41.0808 169.917 39.5569 170.327L34.4959 171.756ZM43.4981 146.679L44.2808 146.54L45.8731 155.52L45.0904 155.659L43.4981 146.679ZM30.4051 157.87L45.8056 155.139L45.9575 155.996L30.5571 158.727L30.4051 157.87ZM36.1479 149.095L36.9412 148.954L38.3421 156.856L37.5488 156.996L36.1479 149.095ZM28.8842 149.292L29.6669 149.153L31.2554 158.112L30.4727 158.251L28.8842 149.292ZM34.9146 133.795L36.9973 133.72C38.0421 133.682 38.999 133.787 39.8679 134.036C40.7365 134.277 41.488 134.647 42.1223 135.148C42.7566 135.648 43.2551 136.257 43.6177 136.975C43.9732 137.693 44.1675 138.51 44.2005 139.426C44.2327 140.321 44.0974 141.143 43.7948 141.892C43.485 142.641 43.0318 143.291 42.4354 143.843C41.8388 144.388 41.1162 144.819 40.2677 145.136C39.4189 145.446 38.4721 145.62 37.4272 145.657L35.3445 145.732C34.2925 145.77 33.3356 145.665 32.4739 145.416C31.6048 145.161 30.853 144.783 30.2187 144.283C29.5844 143.783 29.0895 143.174 28.734 142.455C28.3711 141.73 28.1735 140.921 28.1413 140.026C28.1083 139.11 28.2469 138.281 28.557 137.539C28.8599 136.797 29.3097 136.154 29.9064 135.609C30.5028 135.057 31.2254 134.626 32.0741 134.316C32.9157 134.006 33.8626 133.833 34.9146 133.795ZM37.0282 134.579L34.9241 134.654C34.008 134.687 33.1784 134.832 32.4351 135.088C31.6848 135.344 31.0456 135.704 30.5177 136.167C29.9895 136.624 29.59 137.172 29.3193 137.812C29.0413 138.453 28.9171 139.181 28.9465 139.997C28.9751 140.791 29.151 141.498 29.4743 142.117C29.7904 142.736 30.2283 143.254 30.7879 143.671C31.3476 144.088 32.0108 144.398 32.7777 144.599C33.5374 144.801 34.3753 144.886 35.2914 144.853L37.3955 144.777C38.3187 144.744 39.1555 144.599 39.9059 144.343C40.656 144.079 41.2951 143.719 41.8233 143.263C42.3515 142.807 42.7546 142.259 43.0325 141.618C43.303 140.97 43.4239 140.25 43.3953 139.455C43.3659 138.639 43.1932 137.922 42.8771 137.302C42.5538 136.683 42.1124 136.166 41.5527 135.749C40.9931 135.332 40.3299 135.026 39.5633 134.831C38.7965 134.63 37.9514 134.545 37.0282 134.579ZM104.64 47.4635L105.457 47.1638C105.733 48.2295 105.776 49.1979 105.585 50.0691C105.391 50.9336 104.98 51.6868 104.354 52.3285C103.732 52.9611 102.91 53.4649 101.888 53.8399C101.074 54.1383 100.278 54.255 99.4987 54.19C98.7239 54.1157 97.993 53.8804 97.306 53.4841C96.6232 53.0785 96.0073 52.5226 95.4583 51.8163C94.9093 51.11 94.4572 50.2727 94.1019 49.3046L93.3471 47.2473C92.9895 46.2724 92.7928 45.3414 92.7572 44.4544C92.7192 43.5606 92.8306 42.7416 93.0916 41.9974C93.3568 41.2441 93.7655 40.5907 94.3176 40.0372C94.874 39.4746 95.5657 39.0415 96.3926 38.7381C97.3944 38.3706 98.3371 38.2268 99.2209 38.3069C100.105 38.387 100.901 38.6973 101.611 39.238C102.318 39.7719 102.91 40.5347 103.389 41.5264L102.572 41.8261C102.158 41.0093 101.662 40.375 101.084 39.9233C100.511 39.4623 99.8545 39.192 99.1158 39.1121C98.3771 39.0322 97.5606 39.1563 96.6664 39.4844C95.9605 39.7434 95.3757 40.1143 94.9121 40.5972C94.446 41.0733 94.105 41.6409 93.8891 42.2998C93.6707 42.9521 93.5801 43.6719 93.6172 44.4592C93.6586 45.2374 93.8384 46.0601 94.1566 46.9274L94.9188 49.0049C95.2321 49.8587 95.627 50.6025 96.1036 51.2362C96.5778 51.8632 97.1069 52.3595 97.6911 52.7249C98.2728 53.0836 98.8978 53.3005 99.5661 53.3757C100.232 53.4442 100.915 53.3501 101.614 53.0936C102.508 52.7655 103.219 52.3443 103.748 51.8301C104.274 51.3091 104.609 50.6862 104.755 49.9614C104.908 49.2341 104.87 48.4015 104.64 47.4635ZM106.613 35.7664L107.512 35.6027L116.18 48.6547L119.686 33.3841L120.585 33.2204L116.731 49.8209L116.065 49.9422L106.613 35.7664ZM106.349 35.8146L107.152 35.6682L108.706 43.8912L110.009 51.0458L109.153 51.2018L106.349 35.8146ZM120.067 33.3147L120.87 33.1684L123.674 48.5556L122.818 48.7116L121.514 41.5569L120.067 33.3147ZM137.624 39.3508L137.639 41.4347C137.647 42.4802 137.515 43.4337 137.242 44.2952C136.977 45.1566 136.585 45.8973 136.067 46.5171C135.549 47.1369 134.926 47.6179 134.198 47.9601C133.47 48.295 132.647 48.466 131.731 48.473C130.836 48.4798 130.018 48.3213 129.278 47.9975C128.538 47.6665 127.9 47.1951 127.366 46.5833C126.838 45.9714 126.428 45.2368 126.135 44.3797C125.849 43.5224 125.702 42.5711 125.694 41.5255L125.679 39.4416C125.671 38.3889 125.803 37.4354 126.076 36.5811C126.356 35.7195 126.755 34.9789 127.273 34.359C127.791 33.7392 128.414 33.2618 129.142 32.9268C129.877 32.5846 130.692 32.4101 131.587 32.4033C132.504 32.3963 133.329 32.5583 134.062 32.8894C134.795 33.2132 135.425 33.6811 135.952 34.293C136.487 34.9048 136.897 35.6394 137.183 36.4966C137.469 37.3467 137.616 38.298 137.624 39.3508ZM136.78 41.4412L136.764 39.3358C136.757 38.4192 136.636 37.5858 136.401 36.8356C136.166 36.0782 135.825 35.4291 135.377 34.8882C134.936 34.3473 134.399 33.9324 133.767 33.6436C133.134 33.3476 132.41 33.2027 131.593 33.2089C130.798 33.215 130.087 33.3708 129.459 33.6763C128.831 33.9748 128.301 34.3977 127.868 34.9453C127.435 35.4929 127.107 36.1471 126.884 36.9079C126.661 37.6616 126.552 38.4968 126.559 39.4134L126.575 41.5188C126.582 42.4426 126.703 43.2832 126.938 44.0405C127.18 44.7978 127.522 45.447 127.963 45.9879C128.404 46.5288 128.941 46.9473 129.573 47.2433C130.213 47.532 130.93 47.6734 131.725 47.6673C132.541 47.6611 133.263 47.5088 133.891 47.2104C134.519 46.9049 135.049 46.4783 135.482 45.9307C135.915 45.3831 136.239 44.7289 136.456 43.9682C136.679 43.2073 136.787 42.365 136.78 41.4412ZM146.746 33.6003L144.597 49.0926L143.746 48.9746L145.894 33.4822L146.746 33.6003ZM152.257 34.3647L152.148 35.1521L140.274 33.5052L140.383 32.7178L152.257 34.3647ZM158.263 45.3948L153.798 44.1314L154.014 43.3665L158.479 44.6299C159.444 44.9029 160.275 44.9666 160.971 44.8212C161.669 44.6689 162.232 44.363 162.659 43.9035C163.096 43.4391 163.407 42.8795 163.592 42.2249C163.783 41.5496 163.816 40.8929 163.692 40.2548C163.574 39.6186 163.259 39.0494 162.746 38.547C162.235 38.0378 161.497 37.6467 160.532 37.3737L156.501 36.2332L152.46 50.5181L151.622 50.2812L155.88 35.2314L160.749 36.6088C161.831 36.9149 162.684 37.3574 163.309 37.9362C163.942 38.5169 164.349 39.1941 164.532 39.9678C164.717 40.7346 164.685 41.5591 164.435 42.4411C164.182 43.3369 163.776 44.0595 163.219 44.6089C162.664 45.1513 161.971 45.495 161.141 45.6397C160.311 45.7845 159.352 45.7029 158.263 45.3948ZM172.493 56.9169L172.176 57.646L163.811 54.0134L164.128 53.2842L172.493 56.9169ZM170.396 39.821L164.166 54.1674L163.368 53.8208L169.597 39.4744L170.396 39.821ZM174.539 49.455L174.218 50.194L166.857 46.9978L167.178 46.2588L174.539 49.455ZM178.387 43.2911L178.07 44.0202L169.724 40.3961L170.041 39.667L178.387 43.2911ZM186.294 47.8423L178.171 61.2083L177.437 60.762L185.56 47.396L186.294 47.8423ZM191.049 50.7322L190.636 51.4115L180.392 45.1855L180.804 44.5062L191.049 50.7322ZM190.013 58.7077L193.412 61.4741C194.279 62.1793 194.891 62.9131 195.249 63.6755C195.608 64.438 195.73 65.1889 195.618 65.9284C195.511 66.6724 195.189 67.3749 194.651 68.0359C194.249 68.5303 193.794 68.9129 193.287 69.1838C192.791 69.4537 192.254 69.603 191.676 69.6317C191.105 69.665 190.506 69.561 189.88 69.3198C189.255 69.0785 188.617 68.6935 187.967 68.1646L184.243 65.1337L194.115 53.0026L194.79 53.5518L185.42 65.0664L188.469 67.5481C189.247 68.1809 189.976 68.5667 190.657 68.7055C191.349 68.8433 191.975 68.7943 192.536 68.5585C193.107 68.3217 193.592 67.9588 193.99 67.47C194.374 66.9979 194.619 66.4637 194.726 65.8673C194.838 65.2754 194.755 64.6579 194.475 64.0147C194.205 63.3704 193.681 62.7319 192.904 62.099L189.504 59.3326L190.013 58.7077ZM206.263 75.6765L203.269 72.0748L203.859 71.557L206.365 74.5721C206.924 75.244 207.486 75.7357 208.052 76.0472C208.619 76.3588 209.182 76.4819 209.742 76.4165C210.308 76.3466 210.866 76.0827 211.417 75.6249C211.968 75.1671 212.324 74.666 212.486 74.1215C212.648 73.5771 212.619 72.987 212.397 72.3513C212.181 71.7211 211.773 71.0453 211.173 70.3239L208.976 67.6804L197.559 77.1706L197.003 76.5015L209.031 66.5032L211.784 69.8157C212.292 70.427 212.687 71.0253 212.969 71.6106C213.251 72.196 213.402 72.7642 213.422 73.3153C213.453 73.8673 213.348 74.3967 213.108 74.9035C212.868 75.4103 212.481 75.8857 211.947 76.3298C211.451 76.7418 210.923 77.0135 210.362 77.1448C209.8 77.2762 209.237 77.2599 208.673 77.096C208.118 76.9331 207.591 76.6074 207.092 76.119L206.263 75.6765ZM200.313 80.4832L197.271 76.8237L198.123 76.6047L200.924 79.975C201.46 80.6193 202.025 81.0808 202.62 81.3593C203.225 81.6388 203.831 81.7354 204.439 81.649C205.057 81.5635 205.65 81.2851 206.217 80.8135C206.674 80.4335 207.004 79.9732 207.206 79.4324C207.414 78.8871 207.448 78.2953 207.309 77.6569C207.175 77.014 206.826 76.3538 206.263 75.6765L204.588 73.6609L205.204 73.1761L207.615 76.0756L207.476 76.345C207.85 76.9185 208.066 77.5208 208.125 78.1517C208.189 78.7881 208.105 79.3982 207.873 79.982C207.647 80.5613 207.286 81.0569 206.79 81.4689C206.069 82.0686 205.327 82.4148 204.566 82.5074C203.805 82.6 203.059 82.4703 202.329 82.1182C201.603 81.7716 200.931 81.2266 200.313 80.4832ZM206.353 85.9687L223.426 86.9313L223.875 87.6766L210.478 95.7489L210.029 95.0036L222.147 87.702L205.056 86.7504L204.607 86.0051L218.003 77.9328L218.453 78.6781L206.353 85.9687ZM217.044 109.383L216.305 109.676L211.667 97.9948L212.406 97.7014L217.044 109.383ZM212.505 97.951L208.262 99.6358L207.941 98.8271L212.184 97.1423L212.505 97.951ZM217.31 110.052L213.067 111.736L212.742 110.918L216.985 109.233L217.31 110.052ZM230.35 102.666L229.612 102.959L226.932 96.2103L227.671 95.9169L230.35 102.666ZM230.576 103.235L216.04 109.007L215.723 108.208L230.259 102.436L230.576 103.235ZM227.544 95.5974L227.865 96.4061L222.892 98.115C221.905 98.445 220.964 98.7032 220.067 98.8898C219.179 99.0804 218.345 99.2112 217.565 99.2824C216.793 99.3576 216.083 99.385 215.436 99.3648C214.795 99.3419 214.227 99.2786 213.731 99.1749C213.238 99.0779 212.826 98.9525 212.495 98.7988C212.167 98.6516 211.933 98.4901 211.794 98.3142L211.525 97.6353L212.263 97.342L212.517 97.981C212.727 98.0826 213.087 98.1938 213.597 98.3148C214.114 98.4332 214.783 98.5067 215.604 98.5354C216.433 98.5681 217.425 98.4941 218.578 98.3135C219.741 98.1369 221.072 97.8012 222.57 97.3063L227.544 95.5974ZM219.998 121.151L219.225 121.336L217.105 112.466L217.878 112.281L219.998 121.151ZM232.407 109.206L217.195 112.842L216.992 111.996L232.205 108.36L232.407 109.206ZM227.193 118.305L226.409 118.492L224.544 110.688L225.327 110.501L227.193 118.305ZM234.432 117.679L233.659 117.864L231.544 109.015L232.317 108.83L234.432 117.679ZM229.285 133.514L227.21 133.706C226.169 133.802 225.208 133.75 224.326 133.551C223.446 133.358 222.675 133.03 222.013 132.566C221.352 132.102 220.82 131.522 220.418 130.825C220.023 130.128 219.784 129.323 219.699 128.41C219.617 127.519 219.706 126.691 219.967 125.926C220.234 125.161 220.65 124.486 221.215 123.902C221.78 123.325 222.478 122.854 223.307 122.49C224.137 122.133 225.073 121.907 226.114 121.811L228.189 121.619C229.238 121.523 230.199 121.575 231.073 121.775C231.955 121.981 232.727 122.316 233.388 122.78C234.049 123.244 234.578 123.825 234.973 124.522C235.375 125.226 235.618 126.023 235.7 126.915C235.784 127.828 235.692 128.663 235.424 129.421C235.163 130.179 234.75 130.846 234.184 131.423C233.62 132.008 232.922 132.478 232.092 132.835C231.269 133.191 230.334 133.418 229.285 133.514ZM227.131 132.85L229.228 132.657C230.141 132.573 230.961 132.382 231.689 132.085C232.424 131.787 233.042 131.392 233.543 130.9C234.045 130.415 234.413 129.845 234.648 129.191C234.889 128.536 234.973 127.802 234.898 126.989C234.825 126.197 234.61 125.501 234.252 124.901C233.902 124.301 233.436 123.808 232.854 123.423C232.272 123.038 231.593 122.766 230.816 122.607C230.046 122.448 229.204 122.411 228.292 122.495L226.195 122.688C225.275 122.773 224.448 122.964 223.713 123.262C222.979 123.567 222.361 123.962 221.859 124.447C221.357 124.931 220.985 125.501 220.743 126.157C220.509 126.818 220.429 127.545 220.502 128.336C220.577 129.149 220.789 129.856 221.139 130.457C221.497 131.057 221.966 131.549 222.548 131.934C223.13 132.319 223.81 132.588 224.586 132.739C225.363 132.898 226.211 132.935 227.131 132.85Z" fill="#181D24"/>
</svg>
