<svg width="54" height="18" viewBox="0 0 54 18" fill="none" xmlns="http://www.w3.org/2000/svg">
<path d="M8.79399 8.97071L39.2405 8.9707L53.5171 8.9707C48.7582 9.81551 39.2405 12.6879 39.2405 17.4191" stroke="#181D24" stroke-width="0.904162"/>
<path d="M8.79399 8.97071L39.2405 8.9707L53.5171 8.9707C48.7582 9.81551 39.2405 12.6879 39.2405 17.4191" stroke="#AC7E65" stroke-width="0.904162"/>
<path d="M8.79399 8.97168L39.2405 8.97168L53.5171 8.97168C48.7582 8.12687 39.2405 5.25446 39.2405 0.523308" stroke="#181D24" stroke-width="0.904162"/>
<path d="M8.79399 8.97168L39.2405 8.97168L53.5171 8.97168C48.7582 8.12687 39.2405 5.25446 39.2405 0.523308" stroke="#AC7E65" stroke-width="0.904162"/>
<circle cx="5.09937" cy="8.97241" r="3.82453" transform="rotate(90 5.09937 8.97241)" stroke="#181D24" stroke-width="0.904162"/>
<circle cx="5.09937" cy="8.97241" r="3.82453" transform="rotate(90 5.09937 8.97241)" stroke="#AC7E65" stroke-width="0.904162"/>
</svg>
