<svg width="29" height="29" viewBox="0 0 29 29" fill="none" xmlns="http://www.w3.org/2000/svg">
<path d="M10.7745 0.640144C8.63178 0.637784 6.54267 1.24486 4.80347 2.37526C3.06428 3.50566 1.7633 5.10199 1.08508 6.9378C0.406856 8.77362 0.385831 10.7557 1.02498 12.6029C1.66414 14.4502 2.93102 16.0687 4.64592 17.229V19.553H3.11378V28.3174H18.4351V25.0884H22.0101C23.2287 25.0871 24.397 24.6493 25.2586 23.871C26.1203 23.0927 26.605 22.0375 26.6065 20.9368V13.1817C27.1907 12.877 27.6473 12.4068 27.9054 11.8439C28.1636 11.281 28.2088 10.6569 28.0343 10.0684C27.8597 9.47987 27.475 8.95984 26.9398 8.58894C26.4046 8.21804 25.7489 8.017 25.0744 8.017C24.3998 8.017 23.7441 8.21804 23.209 8.58894C22.6738 8.95984 22.2891 9.47987 22.1145 10.0684C21.94 10.6569 21.9852 11.281 22.2434 11.8439C22.5015 12.4068 22.9581 12.877 23.5423 13.1817V20.4755C23.5423 20.9649 23.327 21.4342 22.9439 21.7803C22.5608 22.1263 22.0412 22.3207 21.4994 22.3207H18.4351V19.553H16.903V17.229C18.6179 16.0687 19.8848 14.4502 20.5239 12.6029C21.1631 10.7557 21.1421 8.77362 20.4638 6.9378C19.7856 5.10199 18.4846 3.50566 16.7454 2.37526C15.0062 1.24486 12.9171 0.637784 10.7745 0.640144ZM23.0315 10.7885C23.0315 10.4235 23.1514 10.0668 23.3758 9.76337C23.6003 9.45994 23.9193 9.22344 24.2926 9.08379C24.6659 8.94413 25.0767 8.90759 25.4729 8.97879C25.8692 9.04998 26.2332 9.22572 26.5189 9.48377C26.8046 9.74182 26.9992 10.0706 27.078 10.4285C27.1568 10.7864 27.1164 11.1574 26.9617 11.4946C26.8071 11.8318 26.5453 12.1199 26.2093 12.3227C25.8734 12.5254 25.4784 12.6336 25.0744 12.6336C24.5326 12.6336 24.013 12.4392 23.6299 12.0932C23.2468 11.7472 23.0315 11.2779 23.0315 10.7885ZM18.4351 23.2433H21.4994C22.3119 23.2425 23.0908 22.9507 23.6653 22.4318C24.2398 21.9129 24.5629 21.2094 24.5637 20.4755V13.5147C24.9014 13.5701 25.2474 13.5701 25.5851 13.5147V20.9368C25.584 21.7929 25.207 22.6137 24.5368 23.219C23.8666 23.8244 22.9579 24.1649 22.0101 24.1658H18.4351V23.2433ZM17.4137 20.4755V27.3949H4.1352V20.4755H17.4137ZM5.66734 19.553V17.8434C7.21718 18.6609 8.9797 19.0917 10.7745 19.0917C12.5692 19.0917 14.3317 18.6609 15.8816 17.8434V19.553H5.66734ZM10.7745 18.1691C8.95629 18.1691 7.17896 17.6821 5.6672 16.7698C4.15545 15.8574 2.97719 14.5606 2.28141 13.0434C1.58562 11.5262 1.40357 9.8567 1.75828 8.24604C2.11299 6.63538 2.98852 5.15589 4.27416 3.99467C5.5598 2.83345 7.1978 2.04264 8.98103 1.72226C10.7643 1.40188 12.6126 1.56631 14.2924 2.19476C15.9722 2.82321 17.4079 3.88745 18.418 5.2529C19.4281 6.61836 19.9673 8.22369 19.9673 9.86591C19.9644 12.0673 18.995 14.1777 17.2716 15.7343C15.5483 17.2909 13.2117 18.1665 10.7745 18.1691Z" fill="#AC7644"/>
<path d="M10.7742 6.17578C9.9661 6.17578 9.17617 6.39221 8.50428 6.79771C7.83239 7.20321 7.30872 7.77955 6.99948 8.45387C6.69025 9.12818 6.60934 9.87018 6.76698 10.586C6.92463 11.3019 7.31376 11.9594 7.88515 12.4755C8.45655 12.9916 9.18455 13.3431 9.9771 13.4855C10.7696 13.6279 11.5911 13.5548 12.3377 13.2755C13.0843 12.9962 13.7224 12.5232 14.1713 11.9163C14.6202 11.3094 14.8599 10.596 14.8599 9.86609C14.8587 8.88769 14.4278 7.94969 13.6619 7.25786C12.8959 6.56603 11.8574 6.17688 10.7742 6.17578ZM10.7742 12.6338C10.1681 12.6338 9.57567 12.4715 9.07176 12.1674C8.56784 11.8632 8.17508 11.431 7.94316 10.9253C7.71123 10.4195 7.65055 9.86302 7.76878 9.32613C7.88702 8.78924 8.17886 8.29608 8.60741 7.90901C9.03595 7.52193 9.58195 7.25833 10.1764 7.15154C10.7708 7.04475 11.3869 7.09956 11.9468 7.30904C12.5067 7.51852 12.9853 7.87327 13.322 8.32842C13.6587 8.78357 13.8384 9.31868 13.8384 9.86609C13.8376 10.5999 13.5145 11.3035 12.94 11.8224C12.3656 12.3413 11.5866 12.6331 10.7742 12.6338Z" fill="#AC7644"/>
<path d="M3.62445 9.86621H2.60303C2.60303 9.94002 2.69649 17.2468 10.7744 17.2468V16.3242C3.72659 16.3242 3.62445 10.1291 3.62445 9.86621Z" fill="#AC7644"/>
<path d="M12.8173 16.3242H11.7959V17.2468H12.8173V16.3242Z" fill="#AC7644"/>
<path d="M5.66699 24.1662H15.8812V21.3984H5.66699V24.1662ZM6.68842 22.321H14.8598V23.2436H6.68842V22.321Z" fill="#AC7644"/>
<path d="M18.7541 1.20264L18.1157 1.92317C18.1402 1.9407 20.5753 3.71712 21.5375 5.8861L22.4864 5.5429C21.4246 3.15112 18.8624 1.28106 18.7541 1.20264Z" fill="#AC7644"/>
<path d="M25.038 6.00437C24.2729 4.40866 23.1966 2.95011 21.8603 1.69824L21.1382 2.3505C22.3738 3.5162 23.3726 4.86918 24.0891 6.34757L25.038 6.00437Z" fill="#AC7644"/>
</svg>
