<svg width="25" height="31" viewBox="0 0 25 31" fill="none" xmlns="http://www.w3.org/2000/svg">
<path d="M12.9279 29.4489C12.9279 29.7644 12.6708 30.0215 12.3547 30.0215C12.0392 30.0215 11.7821 29.7644 11.7821 29.4489C11.7821 29.1333 12.0392 28.8762 12.3547 28.8762C12.6708 28.8762 12.9279 29.1333 12.9279 29.4489ZM0.324398 29.4489V28.7245C0.324398 24.9067 2.91381 22.8247 4.04761 22.145C5.58745 21.2225 7.24142 20.5251 8.97104 20.0668V19.1448C8.68266 18.8903 8.41903 18.6008 8.18608 18.2782C7.50019 17.3283 6.94039 16.2984 6.51848 15.2109C6.13236 15.1582 5.77934 14.9125 5.59782 14.5281C5.42471 14.1617 4.22398 11.9404 4.03999 11.5452C3.57359 10.543 4.18315 9.55294 4.9559 9.23422C5.08457 9.18114 5.21685 9.14191 5.35142 9.11952C5.2263 8.60765 5.16308 8.08124 5.16308 7.54601C5.16308 3.89907 8.13002 0.932129 11.7769 0.932129C12.4178 0.932129 13.0248 1.17727 13.486 1.62237C13.4909 1.62712 13.4986 1.62712 13.5035 1.62237C13.9648 1.17727 14.5718 0.932129 15.2127 0.932129C17.6913 0.932129 19.7078 2.94863 19.7078 5.42724V6.47004C19.7078 7.36798 19.5845 8.25188 19.3412 9.10864C19.4787 9.13092 19.6159 9.16682 19.7461 9.22575C20.6969 9.6563 21.0682 10.7203 20.662 11.5367C20.4678 11.9269 19.2773 14.153 19.1042 14.5196C18.9227 14.9038 18.5698 15.1495 18.1839 15.2024C17.7618 16.2925 17.2011 17.3248 16.5139 18.2768C16.2807 18.5998 16.0167 18.8897 15.728 19.1445V20.0667C17.4576 20.525 19.1116 21.2225 20.6514 22.145C21.7852 22.8247 24.3747 24.9066 24.3747 28.7244V29.4489C24.3747 29.7651 24.1183 30.0215 23.802 30.0215H14.9326C14.9321 30.0215 14.9321 30.0215 14.9315 30.0215C14.6033 30.0215 14.3383 29.7439 14.3601 29.4105C14.3801 29.1062 14.6466 28.8762 14.9516 28.8762H23.2294C23.2294 26.4583 22.016 24.2981 20.0622 23.1276C18.6829 22.3011 17.2058 21.6659 15.6624 21.2353C15.3538 22.7822 13.9859 23.9517 12.3495 23.9517C10.7132 23.9517 9.34525 22.7822 9.0366 21.2353C7.49361 21.6659 6.01606 22.3011 4.63684 23.1276C2.68304 24.2981 1.46965 26.3918 1.46965 28.8762H9.77844C10.1071 28.8762 10.3718 29.1552 10.3492 29.4887C10.3285 29.7924 10.0621 30.0215 9.75765 30.0215H0.897024C0.580763 30.0215 0.324398 29.7651 0.324398 29.4489ZM6.31039 7.63373C6.36325 7.5716 7.15341 6.60112 8.51334 6.60112C9.19167 6.60112 9.8432 6.8375 10.3591 7.25895C10.8344 7.64713 11.4396 7.86089 12.0632 7.86089C13.539 7.86089 14.7213 6.6739 14.7547 5.15862C14.7615 4.8474 15.0157 4.59865 15.3271 4.59859C15.6383 4.59853 15.8926 4.84717 15.8997 5.15839C15.9161 5.88963 16.3097 6.5237 16.9269 6.81316C17.534 7.09787 18.0419 7.52888 18.4145 8.05627C18.513 7.53558 18.5626 7.00568 18.5626 6.4701V5.42724C18.5626 3.58012 17.0598 2.07738 15.2127 2.07738C14.87 2.07738 14.5455 2.20845 14.2989 2.44644C13.848 2.88175 13.1416 2.88169 12.6906 2.44644C12.4441 2.20845 12.1196 2.07738 11.7769 2.07738C8.76151 2.07738 6.28153 4.49901 6.31039 7.63373ZM14.5828 19.9074C13.227 20.5473 11.6605 20.6212 10.1163 19.9076V20.5732C10.1163 21.8046 11.1181 22.8064 12.3495 22.8064C13.581 22.8064 14.5828 21.8046 14.5828 20.5732V19.9074ZM15.5853 17.6065C16.2956 16.6226 16.8587 15.5455 17.2577 14.4044C17.3277 14.2041 17.5937 13.9012 18.0444 14.0785C18.2568 13.626 19.4531 11.414 19.6265 11.0475C19.7586 10.7683 19.5988 10.4048 19.2986 10.2799C19.1291 10.2095 18.9415 10.2218 18.7766 10.306C18.4212 10.4876 17.9816 10.2733 17.9362 9.88048C17.8332 8.98874 17.2551 8.23207 16.4406 7.85007C16.0289 7.65698 15.6777 7.37376 15.4042 7.02715C15.2319 7.33717 15.0082 7.6161 14.7626 7.88076C13.6758 9.05235 11.4037 9.57327 9.63465 8.146C8.94452 7.58918 7.91815 7.62268 7.28489 8.26511C6.94039 8.61458 6.7378 9.08631 6.7378 9.56829V9.79373C6.73963 10.2143 6.29264 10.4951 5.9083 10.3055C5.74911 10.227 5.56712 10.2235 5.40335 10.2886C5.14367 10.3917 4.92201 10.7279 5.07547 11.0561C5.24726 11.4235 6.46993 13.6686 6.65099 14.0786C7.15524 13.9031 7.39191 14.2633 7.4443 14.4126C7.84365 15.551 8.40563 16.626 9.11459 17.6079C9.87704 18.6638 11.0561 19.2694 12.3494 19.2693C13.6431 19.2691 14.8226 18.6631 15.5853 17.6065ZM24.661 4.36788V1.50475C24.661 1.18849 24.4046 0.932129 24.0883 0.932129H21.2252C20.909 0.932129 20.6526 1.18849 20.6526 1.50475C20.6526 1.82101 20.909 2.07738 21.2252 2.07738H23.5157V4.36788C23.5157 4.68414 23.7721 4.9405 24.0883 4.9405C24.4046 4.9405 24.661 4.68414 24.661 4.36788ZM24.661 20.0005V17.1374C24.661 16.8212 24.4046 16.5648 24.0883 16.5648C23.7721 16.5648 23.5157 16.8212 23.5157 17.1374V19.4279H21.2252C20.909 19.4279 20.6526 19.6843 20.6526 20.0005C20.6526 20.3168 20.909 20.5732 21.2252 20.5732H24.0883C24.4046 20.5732 24.661 20.3168 24.661 20.0005ZM1.18334 4.36788V2.07738H3.47384C3.7901 2.07738 4.04646 1.82101 4.04646 1.50475C4.04646 1.18849 3.7901 0.932129 3.47384 0.932129H0.610711C0.29445 0.932129 0.0380859 1.18849 0.0380859 1.50475V4.36788C0.0380859 4.68414 0.29445 4.9405 0.610711 4.9405C0.926972 4.9405 1.18334 4.68414 1.18334 4.36788ZM4.04646 20.0005C4.04646 19.6843 3.7901 19.4279 3.47384 19.4279H1.18334V17.1374C1.18334 16.8212 0.926972 16.5648 0.610711 16.5648C0.29445 16.5648 0.0380859 16.8212 0.0380859 17.1374V20.0005C0.0380859 20.3168 0.29445 20.5732 0.610711 20.5732H3.47384C3.7901 20.5732 4.04646 20.3168 4.04646 20.0005Z" fill="#AC7644"/>
</svg>
