<svg width="31" height="30" viewBox="0 0 31 30" fill="none" xmlns="http://www.w3.org/2000/svg">
<g clip-path="url(#clip0_99_6600)">
<path d="M29.5329 1.85199C28.9359 1.29081 28.0042 1.25705 27.3607 1.77808L15.1008 11.9198C12.1429 14.374 4.89767 22.5584 4.59047 22.9061C4.42113 23.0973 4.43262 23.3827 4.61695 23.5609L6.6152 25.4925C6.71211 25.5862 6.84049 25.634 6.96886 25.634C7.07626 25.634 7.18419 25.6007 7.27513 25.5321C7.67731 25.2298 17.1676 18.0812 20.7369 14.0387L29.5753 4.02939C30.1723 3.41083 30.1563 2.45657 29.5329 1.85199ZM28.8295 3.3867L19.9766 13.412C16.8518 16.9513 8.78131 23.1581 7.00888 24.5069L5.65105 23.1944C7.07732 21.5935 13.1865 14.781 15.7513 12.6533L28.0066 2.51553C28.2509 2.31706 28.6076 2.33009 28.8305 2.5392C29.0668 2.76854 29.0727 3.13415 28.8295 3.3867Z" fill="#AC7644"/>
<path d="M7.32424 24.556L5.61069 22.8802C5.46784 22.7416 5.25298 22.6987 5.06666 22.7726L4.66202 22.932C2.10872 23.9383 0.46467 26.3119 0.474162 28.9761V29.4976C0.474162 29.6261 0.52713 29.7488 0.621054 29.8395C0.714978 29.9302 0.841363 29.9805 0.973724 29.9805C0.97472 29.9805 0.975247 29.9805 0.975716 29.981C3.98961 29.9694 6.63431 27.9948 7.40562 25.1819L7.45056 25.0225C7.49755 24.8563 7.4491 24.6787 7.32424 24.556ZM1.47329 28.9915V28.9742C1.46532 26.7044 2.8651 24.6835 5.03918 23.8263L5.13463 23.7886L6.41054 25.037C5.76356 27.2188 3.78682 28.7844 1.47329 28.9915Z" fill="#AC7644"/>
<path d="M12.3173 15.1506L11.6108 15.8335L14.6081 18.7308L15.3146 18.0479L12.3173 15.1506Z" fill="#AC7644"/>
<path d="M10.8183 16.6003L10.1118 17.2832L13.1091 20.1805L13.8155 19.4976L10.8183 16.6003Z" fill="#AC7644"/>
<path d="M30.1771 16.9451C29.4228 13.5879 27.7612 10.4688 25.3723 7.92432L24.6329 8.57386C26.9044 10.9928 28.4841 13.9584 29.1989 17.1412C29.2679 17.4773 29.2109 17.8279 29.0381 18.1273C28.6364 18.8251 27.7227 19.0772 26.9968 18.6865L25.9692 18.1418C25.0345 17.6415 23.8561 17.8023 23.1072 18.5257C22.3438 19.2375 22.155 20.368 22.6446 21.2711L24.6883 25.1349C24.7403 25.2329 24.7858 25.3348 24.8232 25.4396C25.2773 26.6962 24.5894 28.0763 23.299 28.5124C18.792 29.9322 12.8805 28.2839 8.23911 24.3072L7.57666 25.0296C11.293 28.2139 15.808 29.9766 19.888 29.9766C21.1893 29.9766 22.4468 29.7969 23.6188 29.4275C25.4387 28.8123 26.4019 26.8806 25.7664 25.1208C25.713 24.9745 25.6505 24.832 25.5776 24.6949L23.5319 20.8273C23.2446 20.297 23.355 19.6364 23.8071 19.2148C24.2483 18.7884 24.9377 18.6937 25.4867 18.9878L26.5133 19.5321C27.7177 20.1797 29.2409 19.76 29.9109 18.5967C30.1981 18.0979 30.293 17.514 30.1771 16.9451Z" fill="#AC7644"/>
<path d="M3.41306 3.84665C-1.05856 8.17403 -0.339682 16.2199 5.08512 22.562L5.85497 21.9458C0.760396 15.99 0.014511 8.50243 4.11946 4.52944C8.3328 0.462376 16.4607 1.3852 22.6244 6.63156L23.2848 5.90669C16.6176 0.231512 8.07499 -0.654161 3.41306 3.84665Z" fill="#AC7644"/>
<path d="M16.4602 3.90332C15.0829 3.90332 13.9624 4.9865 13.9624 6.31787C13.9624 7.64924 15.0829 8.73242 16.4602 8.73242C17.8375 8.73242 18.958 7.64924 18.958 6.31787C18.958 4.9865 17.8375 3.90332 16.4602 3.90332ZM16.4602 7.76665C15.6339 7.76665 14.9615 7.11666 14.9615 6.31792C14.9615 5.51919 15.6339 4.8692 16.4602 4.8692C17.287 4.8692 17.9589 5.51919 17.9589 6.31792C17.9589 7.11666 17.2865 7.76665 16.4602 7.76665Z" fill="#AC7644"/>
<path d="M9.96607 2.9375C8.58879 2.9375 7.46826 4.02068 7.46826 5.35205C7.46826 6.68342 8.58879 7.7666 9.96607 7.7666C11.3434 7.7666 12.4639 6.68342 12.4639 5.35205C12.4639 4.02068 11.3434 2.9375 9.96607 2.9375ZM9.96607 6.80083C9.13979 6.80083 8.46739 6.15084 8.46739 5.3521C8.46739 4.55337 9.13979 3.90338 9.96607 3.90338C10.7929 3.90338 11.4648 4.55337 11.4648 5.3521C11.4648 6.15084 10.7923 6.80083 9.96607 6.80083Z" fill="#AC7644"/>
<path d="M5.46998 7.28369C4.0927 7.28369 2.97217 8.36687 2.97217 9.69824C2.97217 11.0296 4.0927 12.1128 5.46998 12.1128C6.84726 12.1128 7.96778 11.0296 7.96778 9.69824C7.96778 8.36687 6.84726 7.28369 5.46998 7.28369ZM5.46998 11.147C4.6437 11.147 3.97129 10.497 3.97129 9.69824C3.97129 8.89951 4.6437 8.24951 5.46998 8.24951C6.29678 8.24951 6.96866 8.89951 6.96866 9.69824C6.96866 10.497 6.29625 11.147 5.46998 11.147Z" fill="#AC7644"/>
<path d="M6.469 13.0786C5.09172 13.0786 3.97119 14.1618 3.97119 15.4932C3.97119 16.8245 5.09172 17.9077 6.469 17.9077C7.84628 17.9077 8.96681 16.8245 8.96681 15.4932C8.96681 14.1618 7.84634 13.0786 6.469 13.0786ZM6.469 16.9419C5.64272 16.9419 4.97031 16.2919 4.97031 15.4932C4.97031 14.6944 5.64272 14.0444 6.469 14.0444C7.2958 14.0444 7.96768 14.6944 7.96768 15.4932C7.96768 16.2919 7.29527 16.9419 6.469 16.9419Z" fill="#AC7644"/>
<path d="M14.9617 21.771C13.5844 21.771 12.4639 22.8542 12.4639 24.1855C12.4639 25.5169 13.5844 26.6001 14.9617 26.6001C16.339 26.6001 17.4595 25.5169 17.4595 24.1855C17.4595 22.8542 16.339 21.771 14.9617 21.771ZM14.9617 25.6343C14.1354 25.6343 13.463 24.9843 13.463 24.1856C13.463 23.3869 14.1354 22.7369 14.9617 22.7369C15.7885 22.7369 16.4604 23.3869 16.4604 24.1856C16.4604 24.9843 15.7879 25.6343 14.9617 25.6343Z" fill="#AC7644"/>
<path d="M24.2036 12.5957C22.9642 12.5957 21.9556 13.5707 21.9556 14.7688C21.9556 15.9669 22.9642 16.9419 24.2036 16.9419C25.4435 16.9419 26.4516 15.9669 26.4516 14.7688C26.4516 13.5707 25.443 12.5957 24.2036 12.5957ZM24.2036 15.9761C23.5147 15.9761 22.9547 15.4343 22.9547 14.7688C22.9547 14.1033 23.5147 13.5615 24.2036 13.5615C24.8925 13.5615 25.4525 14.1033 25.4525 14.7688C25.4525 15.4343 24.8925 15.9761 24.2036 15.9761Z" fill="#AC7644"/>
</g>
<defs>
<clipPath id="clip0_99_6600">
<rect width="30" height="29" fill="white" transform="translate(0.349609 0.980957)"/>
</clipPath>
</defs>
</svg>
