<svg width="30" height="31" viewBox="0 0 30 31" fill="none" xmlns="http://www.w3.org/2000/svg">
<g clip-path="url(#clip0_99_6577)">
<path d="M28.9074 12.9808L11.767 2.61289C11.022 2.16219 10.1518 2.03855 9.31693 2.26484C8.48205 2.49113 7.78225 3.04033 7.34657 3.81119L5.2068 7.59711C4.76767 8.37388 4.65059 9.31109 4.88554 10.1684C5.11731 11.0139 5.6563 11.7075 6.40385 12.1227L9.71087 14.1231C9.71307 14.1245 9.71528 14.1258 9.71749 14.1271L10.1233 14.3726L10.0159 14.5928C9.55448 15.4287 9.73545 16.5252 10.3886 17.0954L8.4386 20.5661L4.26436 20.561L4.2664 17.9704C4.26668 17.647 4.01367 17.3846 3.70113 17.384L1.99375 17.3806L1.99585 15.1685C1.99619 14.8449 1.74278 14.5824 1.43001 14.582C1.42984 14.582 1.42961 14.582 1.42944 14.582C1.11684 14.582 0.863317 14.844 0.863034 15.1674L0.84961 29.2561C0.84927 29.5797 1.10268 29.8423 1.41545 29.8426H1.41602C1.72862 29.8426 1.98214 29.5807 1.98242 29.2573L1.98452 27.0445L3.69212 27.0479H3.69325C3.84318 27.0479 3.98705 26.9864 4.09325 26.8769C4.19968 26.767 4.2596 26.618 4.25966 26.4625L4.2617 23.8723L9.3572 23.8786C9.92208 23.8786 10.451 23.5653 10.7384 23.0597C11.0459 22.5154 11.5499 21.6175 12.0572 20.7137C12.4459 20.0214 12.8443 19.3115 13.153 18.7632C13.3375 18.8325 13.5327 18.8667 13.7302 18.8667C14.3923 18.8667 15.0764 18.4924 15.4395 17.8507C15.4454 17.8402 15.4511 17.8295 15.4564 17.8186L15.5393 17.6486L19.5329 20.0643C19.7149 20.2088 19.9353 20.2859 20.1609 20.2859C20.2168 20.2859 20.273 20.2811 20.329 20.2716C20.6486 20.2169 20.9283 20.0148 21.0966 19.7172L21.5145 18.9777L22.0906 19.3218C22.5914 19.6209 23.1387 19.763 23.6792 19.763C24.7818 19.7629 25.8557 19.1714 26.4454 18.1147C26.9684 17.1776 27.0073 16.057 26.5843 15.0988L28.8579 14.0192C29.0499 13.928 29.1769 13.7338 29.1873 13.5155C29.1976 13.2972 29.0898 13.0911 28.9074 12.9808ZM3.12724 25.8749L1.98559 25.8727L1.9925 18.5525L3.13302 18.5548L3.12724 25.8749ZM11.0775 20.1252C10.5708 21.0278 10.0674 21.9247 9.76099 22.4671C9.67575 22.6171 9.52474 22.7067 9.35782 22.7067L4.26255 22.7004L4.26334 21.7328L9.08986 21.7388L11.3549 17.7073L12.1618 18.1953C11.8544 18.7413 11.4613 19.4417 11.0775 20.1252ZM14.454 17.2722C14.2432 17.628 13.761 17.805 13.471 17.6295L11.1777 16.2428C10.8837 16.0648 10.7973 15.532 11.0035 15.1671C11.0094 15.1568 11.0148 15.1462 11.0201 15.1355L11.1032 14.9652L14.5595 17.0559L14.454 17.2722ZM20.1457 19.0775C20.1442 19.0766 20.1427 19.0757 20.1413 19.0748L11.4573 13.8219L15.0477 12.8267L21.4779 16.7207L20.1457 19.0775ZM25.4643 17.5287C24.8977 18.5439 23.6383 18.8929 22.6569 18.3069L22.0863 17.966L22.6514 16.9663L25.5543 15.5878C25.8256 16.2054 25.8006 16.9262 25.4643 17.5287ZM22.2843 15.8512L15.4158 11.6918C15.3282 11.6387 15.2294 11.6115 15.1296 11.6115C15.0806 11.6115 15.0313 11.618 14.983 11.6315L10.0819 12.99L6.96634 11.1055C6.95983 11.1015 6.9532 11.0977 6.94646 11.094C6.46825 10.8308 6.12331 10.3885 5.9753 9.84875C5.82181 9.28859 5.89612 8.69908 6.18459 8.18873L8.32442 4.40275C8.60734 3.90219 9.06182 3.54553 9.60398 3.39857C10.1462 3.25162 10.7112 3.33189 11.1951 3.62463L27.3957 13.424L22.2843 15.8512ZM10.5727 5.42545L13.4926 7.19176C13.7627 7.35512 13.8536 7.714 13.6957 7.99338C13.5904 8.17976 13.4008 8.28365 13.2062 8.28365C13.1091 8.28365 13.0107 8.25781 12.9208 8.20344L10.0008 6.43713C9.73075 6.27377 9.63989 5.91488 9.79775 5.63551C9.95572 5.35619 10.3025 5.26203 10.5727 5.42545ZM29.4298 6.35498C29.3807 6.36857 29.3314 6.37508 29.2829 6.37508C29.0327 6.37508 28.8039 6.20246 28.7361 5.9406C28.4066 4.66848 27.6179 3.60512 26.5152 2.94652C25.4126 2.28799 24.1281 2.11308 22.8983 2.45392C22.596 2.53783 22.2856 2.35221 22.2046 2.03961C22.1236 1.72701 22.3029 1.40574 22.6051 1.32195C24.1271 0.899959 25.7169 1.11652 27.0816 1.93162C28.4463 2.74672 29.4225 4.06279 29.8303 5.63732C29.9113 5.94998 29.732 6.27125 29.4298 6.35498ZM25.2279 5.25312C24.7208 4.95025 24.1301 4.8698 23.5647 5.0266C23.2624 5.11045 22.9519 4.92488 22.8709 4.61228C22.7899 4.29969 22.9692 3.97842 23.2714 3.89463C24.1292 3.65674 25.0253 3.77885 25.7943 4.23822C26.5634 4.6976 27.1136 5.43933 27.3435 6.32674C27.4245 6.63928 27.2452 6.9606 26.943 7.04433C26.8939 7.05793 26.8446 7.06443 26.7961 7.06443C26.5459 7.06443 26.3171 6.89181 26.2493 6.62996C26.0977 6.04496 25.735 5.55599 25.2279 5.25312ZM24.4859 6.58273C24.8245 6.78494 24.9404 7.23283 24.7449 7.58305C24.5495 7.93326 24.1166 8.05326 23.778 7.85105C23.4394 7.64885 23.3234 7.20096 23.5188 6.85074C23.7144 6.50053 24.1473 6.38053 24.4859 6.58273Z" fill="#AC7644"/>
</g>
<defs>
<clipPath id="clip0_99_6577">
<rect width="29" height="30" fill="white" transform="translate(0.849609 0.478027)"/>
</clipPath>
</defs>
</svg>
