<svg width="33" height="31" viewBox="0 0 33 31" fill="none" xmlns="http://www.w3.org/2000/svg">
<path d="M3.30492 21.6466C2.06689 19.6627 1.38231 17.3837 1.3222 15.0459C1.2621 12.7082 1.82866 10.397 2.96311 8.35209C4.09756 6.30718 5.75856 4.60311 7.77375 3.41669C9.78895 2.23027 12.0849 1.60473 14.4234 1.60498V15.48M25.5435 21.6466C26.8441 19.5668 27.5318 17.1622 27.5276 14.7091V11.6258H31.3818M2.09009 15.48H26.7568M9.02759 29.355C8.20984 29.355 7.42558 29.0301 6.84734 28.4519C6.26911 27.8737 5.94426 27.0894 5.94426 26.2716C5.94426 25.4539 6.26911 24.6696 6.84734 24.0914C7.42558 23.5132 8.20984 23.1883 9.02759 23.1883C9.84534 23.1883 10.6296 23.5132 11.2078 24.0914C11.7861 24.6696 12.1109 25.4539 12.1109 26.2716C12.1109 27.0894 11.7861 27.8737 11.2078 28.4519C10.6296 29.0301 9.84534 29.355 9.02759 29.355ZM19.8193 29.355C19.0015 29.355 18.2172 29.0301 17.639 28.4519C17.0608 27.8737 16.7359 27.0894 16.7359 26.2716C16.7359 25.4539 17.0608 24.6696 17.639 24.0914C18.2172 23.5132 19.0015 23.1883 19.8193 23.1883C20.637 23.1883 21.4213 23.5132 21.9995 24.0914C22.5777 24.6696 22.9026 25.4539 22.9026 26.2716C22.9026 27.0894 22.5777 27.8737 21.9995 28.4519C21.4213 29.0301 20.637 29.355 19.8193 29.355Z" stroke="#AC7644" stroke-width="1.5" stroke-linecap="round" stroke-linejoin="round"/>
</svg>
