<svg width="1920" height="1081" viewBox="0 0 1920 1081" fill="none" xmlns="http://www.w3.org/2000/svg">
<rect width="1920" height="1080" transform="translate(0 0.318359)" fill="white"/>
<g style="mix-blend-mode:plus-darker">
<rect x="1432.46" y="367.463" width="186.504" height="298.132" fill="#D9D9D9"/>
<rect x="1432.46" y="367.463" width="186.504" height="298.132" fill="#AC7644" fill-opacity="0.5"/>
<rect x="1432.46" y="367.463" width="186.504" height="298.132" stroke="white" stroke-width="2"/>
</g>
<g style="mix-blend-mode:plus-darker">
<rect x="947.113" y="668.539" width="168.115" height="264.165" transform="rotate(90 947.113 668.539)" fill="#D9D9D9"/>
<rect x="947.113" y="668.539" width="168.115" height="264.165" transform="rotate(90 947.113 668.539)" fill="#AC7644" fill-opacity="0.5"/>
<rect x="947.113" y="668.539" width="168.115" height="264.165" transform="rotate(90 947.113 668.539)" stroke="white" stroke-width="2"/>
</g>
<g style="mix-blend-mode:plus-darker">
<rect x="680.949" y="666.544" width="170.11" height="264.165" transform="rotate(90 680.949 666.544)" fill="#D9D9D9"/>
<rect x="680.949" y="666.544" width="170.11" height="264.165" transform="rotate(90 680.949 666.544)" fill="#AC7644" fill-opacity="0.5"/>
<rect x="680.949" y="666.544" width="170.11" height="264.165" transform="rotate(90 680.949 666.544)" stroke="white" stroke-width="2"/>
</g>
<g style="mix-blend-mode:plus-darker">
<rect x="313.003" y="664.544" width="187.02" height="299.003" transform="rotate(-180 313.003 664.544)" fill="#D9D9D9"/>
<rect x="313.003" y="664.544" width="187.02" height="299.003" transform="rotate(-180 313.003 664.544)" fill="#AC7644" fill-opacity="0.5"/>
<rect x="313.003" y="664.544" width="187.02" height="299.003" transform="rotate(-180 313.003 664.544)" stroke="white" stroke-width="2"/>
</g>
<g style="mix-blend-mode:plus-darker">
<path d="M414.783 848.923L220.861 848.923L220.861 867.09L128.054 867.09L128.054 742.458L140.555 742.458L140.555 666.544L414.783 666.544L414.783 848.923Z" fill="#D9D9D9"/>
<path d="M414.783 848.923L220.861 848.923L220.861 867.09L128.054 867.09L128.054 742.458L140.555 742.458L140.555 666.544L414.783 666.544L414.783 848.923Z" fill="#AC7644" fill-opacity="0.5"/>
<path d="M414.783 848.923L220.861 848.923L220.861 867.09L128.054 867.09L128.054 742.458L140.555 742.458L140.555 666.544L414.783 666.544L414.783 848.923Z" stroke="white" stroke-width="2"/>
</g>
<g style="mix-blend-mode:plus-darker">
<rect x="1325.77" y="198.857" width="170.694" height="288.604" transform="rotate(90 1325.77 198.857)" fill="#D9D9D9"/>
<rect x="1325.77" y="198.857" width="170.694" height="288.604" transform="rotate(90 1325.77 198.857)" fill="#AC7644" fill-opacity="0.5"/>
<rect x="1325.77" y="198.857" width="170.694" height="288.604" transform="rotate(90 1325.77 198.857)" stroke="white" stroke-width="2"/>
</g>
<g style="mix-blend-mode:plus-darker">
<path d="M1616.8 162.737V288.049H1599.65V294.575H1604.18V365.487H1432.42V363.072H1330.41V181.837H1521.91V179.91H1524.01V162.737H1616.8Z" fill="#D9D9D9"/>
<path d="M1616.8 162.737V288.049H1599.65V294.575H1604.18V365.487H1432.42V363.072H1330.41V181.837H1521.91V179.91H1524.01V162.737H1616.8Z" fill="#AC7644" fill-opacity="0.5"/>
<path d="M1616.8 162.737V288.049H1599.65V294.575H1604.18V365.487H1432.42V363.072H1330.41V181.837H1521.91V179.91H1524.01V162.737H1616.8Z" stroke="white" stroke-width="2"/>
</g>
<g style="mix-blend-mode:plus-darker">
<path d="M1035.67 369.552L946.707 369.552L946.707 370.552L946.706 428.46L946.706 429.46L947.113 429.46L947.113 662.466L776.536 662.466L776.536 198.857L1035.67 198.857L1035.67 369.552Z" fill="#D9D9D9"/>
<path d="M1035.67 369.552L946.707 369.552L946.707 370.552L946.706 428.46L946.706 429.46L947.113 429.46L947.113 662.466L776.536 662.466L776.536 198.857L1035.67 198.857L1035.67 369.552Z" fill="#AC7644" fill-opacity="0.5"/>
<path d="M1035.67 369.552L946.707 369.552L946.707 370.552L946.706 428.46L946.706 429.46L947.113 429.46L947.113 662.466L776.536 662.466L776.536 198.857L1035.67 198.857L1035.67 369.552Z" stroke="white" stroke-width="2"/>
</g>
<rect x="1502.65" y="459.446" width="54.8993" height="83.2451" rx="27.4497" fill="white"/>
<path d="M1530.1 525.2C1526.94 525.2 1524.17 524.642 1521.77 523.526C1519.37 522.39 1517.49 520.832 1516.15 518.854C1514.8 516.875 1514.13 514.612 1514.13 512.065C1514.13 510.087 1514.51 508.255 1515.29 506.572C1516.09 504.867 1517.18 503.446 1518.55 502.309C1519.93 501.173 1521.49 500.446 1523.22 500.131V499.878C1520.97 499.289 1519.17 498.015 1517.82 496.058C1516.49 494.1 1515.83 491.879 1515.83 489.396C1515.83 486.996 1516.44 484.86 1517.66 482.986C1518.88 481.092 1520.57 479.608 1522.71 478.534C1524.88 477.44 1527.34 476.893 1530.1 476.893C1532.82 476.893 1535.25 477.44 1537.39 478.534C1539.54 479.608 1541.23 481.092 1542.45 482.986C1543.69 484.86 1544.31 486.996 1544.31 489.396C1544.31 491.879 1543.64 494.1 1542.29 496.058C1540.94 498.015 1539.17 499.289 1536.98 499.878V500.131C1538.67 500.446 1540.19 501.173 1541.56 502.309C1542.95 503.446 1544.05 504.867 1544.85 506.572C1545.67 508.255 1546.08 510.087 1546.08 512.065C1546.08 514.612 1545.39 516.875 1544.03 518.854C1542.68 520.832 1540.8 522.39 1538.41 523.526C1536.01 524.642 1533.24 525.2 1530.1 525.2ZM1530.1 520.148C1532.23 520.148 1534.06 519.811 1535.6 519.138C1537.15 518.443 1538.35 517.475 1539.19 516.233C1540.04 514.97 1540.46 513.497 1540.46 511.813C1540.46 510.045 1540.01 508.476 1539.1 507.108C1538.19 505.74 1536.96 504.667 1535.41 503.888C1533.85 503.109 1532.08 502.72 1530.1 502.72C1528.08 502.72 1526.28 503.109 1524.7 503.888C1523.14 504.667 1521.91 505.74 1521.01 507.108C1520.12 508.476 1519.68 510.045 1519.68 511.813C1519.68 513.497 1520.1 514.97 1520.95 516.233C1521.79 517.475 1522.99 518.443 1524.54 519.138C1526.1 519.811 1527.95 520.148 1530.1 520.148ZM1530.1 497.857C1531.79 497.857 1533.28 497.521 1534.58 496.847C1535.89 496.173 1536.92 495.237 1537.68 494.037C1538.44 492.816 1538.82 491.395 1538.82 489.775C1538.82 488.175 1538.45 486.786 1537.71 485.607C1536.97 484.428 1535.95 483.513 1534.65 482.86C1533.34 482.207 1531.83 481.881 1530.1 481.881C1528.33 481.881 1526.79 482.207 1525.46 482.86C1524.16 483.513 1523.13 484.428 1522.4 485.607C1521.68 486.786 1521.32 488.175 1521.32 489.775C1521.32 491.395 1521.69 492.816 1522.43 494.037C1523.19 495.237 1524.22 496.173 1525.52 496.847C1526.85 497.521 1528.38 497.857 1530.1 497.857Z" fill="#AC7644"/>
<rect x="1423.91" y="218.523" width="54.8993" height="83.2451" rx="27.4497" fill="white"/>
<path d="M1438.99 283.646L1460.02 242.033V241.654H1435.77V236.602H1465.95V241.97L1444.99 283.646H1438.99Z" fill="#AC7644"/>
<rect x="1089.1" y="251.008" width="54.8993" height="83.2451" rx="27.4497" fill="white"/>
<path d="M1116.86 316.762C1114.95 316.762 1113.02 316.415 1111.09 315.72C1109.15 315.005 1107.38 313.815 1105.78 312.153C1104.2 310.469 1102.93 308.185 1101.96 305.301C1100.99 302.418 1100.51 298.808 1100.51 294.472C1100.51 290.304 1100.9 286.61 1101.68 283.389C1102.48 280.169 1103.61 277.454 1105.09 275.243C1106.58 273.012 1108.38 271.328 1110.49 270.192C1112.59 269.034 1114.97 268.455 1117.62 268.455C1120.25 268.455 1122.59 268.981 1124.63 270.034C1126.69 271.086 1128.38 272.549 1129.68 274.423C1130.99 276.275 1131.83 278.411 1132.21 280.832H1126.65C1126.13 278.727 1125.11 276.98 1123.59 275.591C1122.1 274.201 1120.11 273.507 1117.62 273.507C1113.98 273.507 1111.11 275.096 1109 278.274C1106.92 281.432 1105.88 285.884 1105.88 291.63H1106.26C1107.12 290.325 1108.14 289.209 1109.32 288.283C1110.5 287.336 1111.8 286.62 1113.23 286.136C1114.66 285.631 1116.19 285.378 1117.81 285.378C1120.51 285.378 1122.97 286.052 1125.2 287.399C1127.43 288.725 1129.22 290.567 1130.57 292.924C1131.91 295.261 1132.59 297.945 1132.59 300.976C1132.59 303.88 1131.94 306.533 1130.63 308.932C1129.35 311.311 1127.53 313.216 1125.17 314.647C1122.81 316.057 1120.04 316.762 1116.86 316.762ZM1116.86 311.711C1118.8 311.711 1120.54 311.237 1122.07 310.29C1123.61 309.322 1124.83 308.027 1125.74 306.406C1126.64 304.764 1127.09 302.954 1127.09 300.976C1127.09 299.018 1126.65 297.25 1125.77 295.671C1124.91 294.072 1123.72 292.798 1122.2 291.851C1120.71 290.904 1118.99 290.43 1117.05 290.43C1115.12 290.43 1113.36 290.925 1111.78 291.914C1110.22 292.903 1108.98 294.208 1108.06 295.829C1107.15 297.429 1106.7 299.165 1106.7 301.039C1106.7 302.912 1107.14 304.67 1108.02 306.312C1108.91 307.932 1110.11 309.237 1111.62 310.227C1113.16 311.216 1114.91 311.711 1116.86 311.711Z" fill="#AC7644"/>
<rect x="809.737" y="394.324" width="54.8993" height="83.2451" rx="27.4497" fill="white"/>
<path d="M836.781 460.079C834.087 460.079 831.656 459.553 829.488 458.5C827.341 457.427 825.615 455.953 824.31 454.08C823.005 452.206 822.3 450.081 822.194 447.702H827.688C827.899 449.807 828.856 451.554 830.561 452.943C832.287 454.332 834.361 455.027 836.781 455.027C838.718 455.027 840.433 454.574 841.928 453.669C843.422 452.764 844.601 451.522 845.464 449.944C846.327 448.365 846.758 446.565 846.758 444.545C846.758 442.503 846.306 440.672 845.401 439.051C844.517 437.43 843.296 436.157 841.738 435.231C840.181 434.283 838.402 433.81 836.402 433.81C834.95 433.81 833.466 434.041 831.951 434.504C830.456 434.946 829.225 435.515 828.256 436.209L822.889 435.578L825.731 412.403H850.168V417.455H830.53L828.888 431.347H829.141C830.109 430.568 831.319 429.937 832.771 429.453C834.224 428.947 835.75 428.695 837.35 428.695C840.233 428.695 842.801 429.379 845.053 430.747C847.306 432.115 849.074 433.989 850.358 436.367C851.663 438.725 852.315 441.429 852.315 444.482C852.315 447.47 851.642 450.144 850.295 452.501C848.947 454.859 847.106 456.711 844.769 458.058C842.433 459.405 839.77 460.079 836.781 460.079Z" fill="#AC7644"/>
<rect x="740.1" y="720.9" width="54.8993" height="83.2451" rx="27.4497" fill="white"/>
<path d="M750.594 776.362V771.689L771.243 738.979H774.653V746.241H772.316L756.719 770.931V771.31H784.567V776.362H750.594ZM772.695 786.023V774.973V772.763V738.979H778.126V786.023H772.695Z" fill="#AC7644"/>
<rect x="513.43" y="720.9" width="54.8993" height="83.2451" rx="27.4497" fill="white"/>
<path d="M541.068 786.655C538.016 786.655 535.311 786.139 532.954 785.108C530.597 784.076 528.723 782.635 527.334 780.782C525.945 778.909 525.197 776.741 525.092 774.278H530.839C530.965 775.794 531.481 777.099 532.386 778.193C533.312 779.288 534.512 780.13 535.985 780.719C537.48 781.308 539.132 781.603 540.942 781.603C542.963 781.603 544.752 781.256 546.31 780.561C547.888 779.846 549.12 778.867 550.004 777.625C550.909 776.362 551.361 774.91 551.361 773.268C551.361 771.521 550.93 769.984 550.067 768.658C549.204 767.332 547.941 766.301 546.278 765.564C544.636 764.806 542.626 764.427 540.247 764.427H536.459V759.376H540.247C542.1 759.376 543.731 759.039 545.141 758.365C546.552 757.692 547.657 756.744 548.457 755.524C549.256 754.303 549.656 752.871 549.656 751.23C549.656 749.63 549.309 748.241 548.614 747.062C547.92 745.883 546.93 744.968 545.646 744.315C544.384 743.663 542.879 743.336 541.131 743.336C539.511 743.336 537.985 743.631 536.553 744.22C535.122 744.81 533.954 745.652 533.049 746.746C532.144 747.841 531.659 749.167 531.596 750.724H526.103C526.187 748.262 526.924 746.104 528.313 744.252C529.702 742.4 531.523 740.958 533.775 739.926C536.048 738.874 538.542 738.348 541.258 738.348C544.163 738.348 546.657 738.937 548.741 740.116C550.825 741.274 552.424 742.81 553.54 744.726C554.655 746.641 555.213 748.704 555.213 750.914C555.213 753.587 554.519 755.85 553.129 757.702C551.761 759.554 549.888 760.849 547.509 761.586V761.965C550.456 762.449 552.761 763.712 554.424 765.753C556.087 767.774 556.918 770.279 556.918 773.268C556.918 775.815 556.224 778.099 554.834 780.119C553.466 782.14 551.582 783.74 549.183 784.918C546.804 786.076 544.099 786.655 541.068 786.655Z" fill="#AC7644"/>
<rect x="187.23" y="720.9" width="54.8993" height="83.2451" rx="27.4497" fill="white"/>
<path d="M199.967 786.023V781.919L215.501 764.869C217.311 762.891 218.795 761.165 219.952 759.691C221.131 758.218 222.005 756.829 222.573 755.524C223.162 754.219 223.457 752.85 223.457 751.419C223.457 749.756 223.057 748.325 222.257 747.125C221.478 745.904 220.416 744.968 219.068 744.315C217.721 743.663 216.195 743.336 214.49 743.336C212.68 743.336 211.101 743.705 209.754 744.441C208.428 745.178 207.397 746.22 206.66 747.567C205.944 748.893 205.587 750.451 205.587 752.24H200.156C200.156 749.483 200.787 747.062 202.05 744.978C203.334 742.894 205.071 741.274 207.26 740.116C209.47 738.937 211.943 738.348 214.68 738.348C217.437 738.348 219.879 738.937 222.005 740.116C224.131 741.274 225.793 742.842 226.993 744.82C228.214 746.778 228.825 748.977 228.825 751.419C228.825 753.145 228.509 754.829 227.877 756.471C227.267 758.092 226.193 759.912 224.657 761.933C223.141 763.954 221.036 766.406 218.342 769.29L207.797 780.593V780.972H229.645V786.023H199.967Z" fill="#AC7644"/>
<rect x="187.23" y="530.924" width="54.8993" height="83.2451" rx="27.4497" fill="white"/>
<path d="M222.005 549.003V596.047H216.448V555.002H216.132L204.703 562.642V556.833L216.448 549.003H222.005Z" fill="#AC7644"/>
<g filter="url(#filter0_f_133_268759)">
<path d="M476.65 515.009H479.841L531.514 515.183H539.402L559.452 501.647C572.601 490.615 580.116 494.401 582.23 497.674L618.938 540.887C615.433 557.72 601.06 554.937 594.311 551.441L590.726 535.709L558.001 538.829L559.462 556.22L526.471 558.942L508.283 557.813C501.225 556.84 483.975 554.534 471.443 553.1C458.91 551.667 457.568 545.118 458.464 542.022L476.65 515.009Z" stroke="white" stroke-width="2"/>
<path d="M461.056 478.497H460.848M460.848 478.497H421.957C413.833 480.537 398.519 489.221 402.252 507.64C405.986 526.059 409.685 541.311 411.068 546.635C415.734 552.995 428.221 560.428 440.832 539.271C453.443 518.114 464.893 500.103 469.041 493.743L460.848 478.497Z" stroke="white" stroke-width="2"/>
<path d="M456.283 446.167C455.049 441.642 463.825 410.742 468.367 395.857L500.678 430.483C498.142 431.511 497.05 436.854 496.822 439.396C491.816 443.236 489.422 451.624 488.851 455.338L474.538 453.195C468.967 452.738 457.517 450.692 456.283 446.167Z" stroke="white" stroke-width="2"/>
<path d="M630.178 393.247L620.07 433.541C619.706 438.886 624.629 451.834 647.228 460.86C669.827 469.887 682.776 457.879 686.426 450.747C681.69 429.992 671.699 387.312 669.627 382.632C667.036 376.781 663.358 368.925 648.315 370.095C636.279 371.032 631.209 385.92 630.178 393.247Z" stroke="white" stroke-width="2"/>
<path d="M659.287 339.713L764.811 438.333L765.227 244.16H627.236H443.875V305.393H508.209C516.587 321.646 526.751 328.088 530.785 329.278V305.393H622.403V344.447C633.686 346.735 639.662 335.801 641.24 330.048V300.786C633.035 299.861 628.485 289.928 627.236 285.077C626.808 278.963 626.545 265.589 628.912 261.014C631.871 255.294 640.458 248.219 653.385 250.189C663.726 251.764 668.363 260.981 669.389 265.392C669.635 270.214 669.832 281.605 668.65 288.598C667.468 295.59 659.212 299.637 655.231 300.786C655.128 301.278 654.985 306.067 655.231 321.283C655.477 336.499 658.038 339.909 659.287 339.713Z" stroke="white" stroke-width="2"/>
<path d="M606.184 624.02V651.728L707.304 650.871C702.448 640.635 689.28 618.192 675.454 610.308C661.629 602.424 636.177 602.738 625.179 603.881L606.184 624.02Z" stroke="white" stroke-width="2"/>
<path d="M726.613 566.08C731.601 557.046 753.185 549.17 763.353 546.361V650.871H746.278L716.467 603.881C712.079 586.127 721.403 571.283 726.613 566.08Z" stroke="white" stroke-width="2"/>
<path d="M324.547 649.767V515.986C351.598 510.156 357.922 526.147 357.703 534.872L370.798 601.343L345.731 649.767H324.547Z" stroke="white" stroke-width="2"/>
<path d="M396.824 622.958L382.848 650.204L573.912 651.555V624.27C569.891 611.304 558.081 607.037 552.678 606.524C550.9 606.421 547.098 606.278 546.114 606.524C544.883 606.832 517.29 608.575 516.161 608.473C515.033 608.37 487.542 604.677 480.054 603.247C474.064 602.102 450.006 600.094 438.726 599.233L426.568 605.253L425.624 603.247L406.739 613.869V615.286L396.824 622.958Z" stroke="white" stroke-width="2"/>
<path d="M652.921 554.152L602.844 495.139L602.392 492.974L608.341 470.072L627.412 467.953L650.069 482.379C666.109 491.441 668.815 498.76 668.163 501.287V540.896C669.271 560.195 658.463 557.775 652.921 554.152Z" stroke="white" stroke-width="2"/>
<path d="M504.09 354.183L539.688 394.333C574.377 374.511 587.626 401.715 591.064 411.222C593.815 418.827 598.211 422.481 600.065 423.358C611.19 423.762 610.988 410.615 613.415 401.715C615.357 394.595 618.337 379.668 619.584 373.095C618.775 363.709 603.47 358.599 595.919 357.217C578.692 354.554 541.024 348.762 528.159 346.901C515.295 345.04 506.753 350.98 504.09 354.183Z" stroke="white" stroke-width="2"/>
<path d="M328.922 362.203C319.913 365.231 322.075 377.187 324.282 382.787L323.812 482.673H336.588C354.833 482.521 364.252 468.351 366.681 461.285C371.451 456.516 366.839 433.621 363.937 422.769L355.798 382.787C353.754 363.747 342.771 361.699 337.534 363.055C333.673 361.541 330.184 361.856 328.922 362.203Z" stroke="white" stroke-width="2"/>
<path d="M717.475 509.214C718.921 504.962 748.199 488.802 762.658 481.254L763.402 513.254C758.83 514.671 749.092 517.74 746.711 518.675C744.329 519.611 727.858 524.097 719.921 526.224C714.924 521.546 715.668 514.529 717.475 509.214Z" stroke="white" stroke-width="2"/>
<path d="M717.475 509.214C718.921 504.962 748.199 488.802 762.658 481.254L763.402 513.254C758.83 514.671 749.092 517.74 746.711 518.675C744.329 519.611 727.858 524.097 719.921 526.224C714.924 521.546 715.668 514.529 717.475 509.214Z" stroke="white" stroke-width="2"/>
</g>
<path d="M476.65 515.009H479.841L531.514 515.183H539.402L559.452 501.647C572.601 490.615 580.116 494.401 582.23 497.674L618.938 540.887C615.433 557.72 601.06 554.937 594.311 551.441L590.726 535.709L558.001 538.829L559.462 556.22L526.471 558.942L508.283 557.813C501.225 556.84 483.975 554.534 471.443 553.1C458.91 551.667 457.568 545.118 458.464 542.022L476.65 515.009Z" stroke="white" stroke-width="2"/>
<path d="M461.056 478.497H460.848M460.848 478.497H421.957C413.833 480.537 398.519 489.221 402.252 507.64C405.986 526.059 409.685 541.311 411.068 546.635C415.734 552.995 428.221 560.428 440.832 539.271C453.443 518.114 464.893 500.103 469.041 493.743L460.848 478.497Z" stroke="white" stroke-width="2"/>
<path d="M456.283 446.167C455.049 441.642 463.825 410.742 468.367 395.857L500.678 430.483C498.142 431.511 497.05 436.854 496.822 439.396C491.816 443.236 489.422 451.624 488.851 455.338L474.538 453.195C468.967 452.738 457.517 450.692 456.283 446.167Z" stroke="white" stroke-width="2"/>
<path d="M630.178 393.247L620.07 433.541C619.706 438.886 624.629 451.834 647.228 460.86C669.827 469.887 682.776 457.879 686.426 450.747C681.69 429.992 671.699 387.312 669.627 382.632C667.036 376.781 663.358 368.925 648.315 370.095C636.279 371.032 631.209 385.92 630.178 393.247Z" stroke="white" stroke-width="2"/>
<path d="M659.287 339.713L764.811 438.333L765.227 244.16H627.236H443.875V305.393H508.209C516.587 321.646 526.751 328.088 530.785 329.278V305.393H622.403V344.447C633.686 346.735 639.662 335.801 641.24 330.048V300.786C633.035 299.861 628.485 289.928 627.236 285.077C626.808 278.963 626.545 265.589 628.912 261.014C631.871 255.294 640.458 248.219 653.385 250.189C663.726 251.764 668.363 260.981 669.389 265.392C669.635 270.214 669.832 281.605 668.65 288.598C667.468 295.59 659.212 299.637 655.231 300.786C655.128 301.278 654.985 306.067 655.231 321.283C655.477 336.499 658.038 339.909 659.287 339.713Z" stroke="white" stroke-width="2"/>
<path d="M606.184 624.02V651.728L707.304 650.871C702.448 640.635 689.28 618.192 675.454 610.308C661.629 602.424 636.177 602.738 625.179 603.881L606.184 624.02Z" stroke="white" stroke-width="2"/>
<path d="M726.613 566.08C731.601 557.046 753.185 549.17 763.353 546.361V650.871H746.278L716.467 603.881C712.079 586.127 721.403 571.283 726.613 566.08Z" stroke="white" stroke-width="2"/>
<path d="M324.547 649.767V515.986C351.598 510.156 357.922 526.147 357.703 534.872L370.798 601.343L345.731 649.767H324.547Z" stroke="white" stroke-width="2"/>
<path d="M396.824 622.958L382.848 650.204L573.912 651.555V624.27C569.891 611.304 558.081 607.037 552.678 606.524C550.9 606.421 547.098 606.278 546.114 606.524C544.883 606.832 517.29 608.575 516.161 608.473C515.033 608.37 487.542 604.677 480.054 603.247C474.064 602.102 450.006 600.094 438.726 599.233L426.568 605.253L425.624 603.247L406.739 613.869V615.286L396.824 622.958Z" stroke="white" stroke-width="2"/>
<path d="M652.921 554.152L602.844 495.139L602.392 492.974L608.341 470.072L627.412 467.953L650.069 482.379C666.109 491.441 668.815 498.76 668.163 501.287V540.896C669.271 560.195 658.463 557.775 652.921 554.152Z" stroke="white" stroke-width="2"/>
<path d="M504.09 354.183L539.688 394.333C574.377 374.511 587.626 401.715 591.064 411.222C593.815 418.827 598.211 422.481 600.065 423.358C611.19 423.762 610.988 410.615 613.415 401.715C615.357 394.595 618.337 379.668 619.584 373.095C618.775 363.709 603.47 358.599 595.919 357.217C578.692 354.554 541.024 348.762 528.159 346.901C515.295 345.04 506.753 350.98 504.09 354.183Z" stroke="white" stroke-width="2"/>
<path d="M328.922 362.203C319.913 365.231 322.075 377.187 324.282 382.787L323.812 482.673H336.588C354.833 482.521 364.252 468.351 366.681 461.285C371.451 456.516 366.839 433.621 363.937 422.769L355.798 382.787C353.754 363.747 342.771 361.699 337.534 363.055C333.673 361.541 330.184 361.856 328.922 362.203Z" stroke="white" stroke-width="2"/>
<path d="M717.475 509.214C718.921 504.962 748.199 488.802 762.658 481.254L763.402 513.254C758.83 514.671 749.092 517.74 746.711 518.675C744.329 519.611 727.858 524.097 719.921 526.224C714.924 521.546 715.668 514.529 717.475 509.214Z" stroke="white" stroke-width="2"/>
<path d="M717.475 509.214C718.921 504.962 748.199 488.802 762.658 481.254L763.402 513.254C758.83 514.671 749.092 517.74 746.711 518.675C744.329 519.611 727.858 524.097 719.921 526.224C714.924 521.546 715.668 514.529 717.475 509.214Z" stroke="white" stroke-width="2"/>
<g filter="url(#filter1_f_133_268759)">
<path d="M960.357 588.217V481.988C962.436 482.554 970.326 484.998 985.253 490.254C1000.18 495.51 1004.96 505.409 1005.49 509.702C1006.28 513.863 1008.38 525.128 1010.48 536.901C1012.58 548.675 1008.03 555.21 1005.49 557.006C995.292 576.138 971.153 585.785 960.357 588.217Z" stroke="white" stroke-width="2"/>
<path d="M960.357 588.217V481.988C962.436 482.554 970.326 484.998 985.253 490.254C1000.18 495.51 1004.96 505.409 1005.49 509.702C1006.28 513.863 1008.38 525.128 1010.48 536.901C1012.58 548.675 1008.03 555.21 1005.49 557.006C995.292 576.138 971.153 585.785 960.357 588.217Z" stroke="white" stroke-width="2"/>
<path d="M1194.24 568.935L1175.65 576.212L1176.15 612.299C1182.47 624.599 1192.57 619.381 1196.84 615.235L1213.75 591.613C1211.42 590.239 1205.25 586.358 1199.21 581.829C1193.17 577.301 1193.38 571.346 1194.24 568.935Z" stroke="white" stroke-width="2"/>
<path d="M1194.24 568.935L1175.65 576.212L1176.15 612.299C1182.47 624.599 1192.57 619.381 1196.84 615.235L1213.75 591.613C1211.42 590.239 1205.25 586.358 1199.21 581.829C1193.17 577.301 1193.38 571.346 1194.24 568.935Z" stroke="white" stroke-width="2"/>
<path d="M1143.03 723.486C1131.73 725.876 1108.72 731.107 1107.11 732.917C1105.1 735.18 1096.42 740.459 1104.84 751.268L1117.92 762.831H1307.72H1500.22V695.669H1453.3V691.502H1417.51C1414.92 693.455 1411.29 699.022 1417.51 705.669L1423.58 713.445L1425.07 714.936C1422.5 717.999 1418.61 726.07 1423.58 733.847C1428.56 741.625 1430.16 742.715 1430.33 742.288L1428.15 743.343L1401.47 709.881C1395.34 708.952 1379.07 708.57 1363.03 714.479C1362.96 717.669 1363.48 725.527 1366.2 731.436C1355.24 732.968 1332.82 736.621 1330.77 738.972L1327.68 721.563L1324.83 720.928C1317.56 724.292 1301.49 729.001 1295.37 720.928C1289.24 712.854 1281.45 701.4 1278.32 696.683C1277.12 694.672 1270.01 691.857 1251.17 696.683C1232.33 701.509 1218.19 705.499 1213.47 706.891C1213.22 713.062 1207.82 725.609 1188.26 726.431L1165.63 732.831C1159.71 733.725 1146.89 733.107 1143.03 723.486Z" stroke="white" stroke-width="2"/>
<path d="M1143.03 723.486C1131.73 725.876 1108.72 731.107 1107.11 732.917C1105.1 735.18 1096.42 740.459 1104.84 751.268L1117.92 762.831H1307.72H1500.22V695.669H1453.3V691.502H1417.51C1414.92 693.455 1411.29 699.022 1417.51 705.669L1423.58 713.445L1425.07 714.936C1422.5 717.999 1418.61 726.07 1423.58 733.847C1428.56 741.625 1430.16 742.715 1430.33 742.288L1428.15 743.343L1401.47 709.881C1395.34 708.952 1379.07 708.57 1363.03 714.479C1362.96 717.669 1363.48 725.527 1366.2 731.436C1355.24 732.968 1332.82 736.621 1330.77 738.972L1327.68 721.563L1324.83 720.928C1317.56 724.292 1301.49 729.001 1295.37 720.928C1289.24 712.854 1281.45 701.4 1278.32 696.683C1277.12 694.672 1270.01 691.857 1251.17 696.683C1232.33 701.509 1218.19 705.499 1213.47 706.891C1213.22 713.062 1207.82 725.609 1188.26 726.431L1165.63 732.831C1159.71 733.725 1146.89 733.107 1143.03 723.486Z" stroke="white" stroke-width="2"/>
<path d="M1210.85 472.795L1204.9 484.202L1232.42 497.746C1235.04 499.165 1240.92 501.982 1243.46 501.891C1246.01 501.8 1272.94 497.913 1286.09 495.981L1320.07 490.412C1320.16 479.865 1311.17 476.167 1306.66 475.637L1283.24 473.591C1264.57 472.151 1225.67 469.204 1219.48 468.931C1213.3 468.658 1211.15 471.394 1210.85 472.795Z" stroke="white" stroke-width="2"/>
<path d="M1210.85 472.795L1204.9 484.202L1232.42 497.746C1235.04 499.165 1240.92 501.982 1243.46 501.891C1246.01 501.8 1272.94 497.913 1286.09 495.981L1320.07 490.412C1320.16 479.865 1311.17 476.167 1306.66 475.637L1283.24 473.591C1264.57 472.151 1225.67 469.204 1219.48 468.931C1213.3 468.658 1211.15 471.394 1210.85 472.795Z" stroke="white" stroke-width="2"/>
<path d="M960.23 831.842L960.596 620.511C965.751 622.728 978.441 628.314 987.962 632.925C997.482 637.537 1001.78 645.136 1002.74 648.359L1008.47 676.778C1014.26 705.741 1025.88 764.771 1026.06 769.181C1026.25 773.591 1020.26 779.413 1017.25 781.772L1070.18 826.779C1074.12 821.612 1082.63 811.36 1085.19 811.688C1087.75 812.016 1102.77 825.261 1109.96 831.842H960.23Z" stroke="white" stroke-width="2"/>
<path d="M960.23 831.842L960.596 620.511C965.751 622.728 978.441 628.314 987.962 632.925C997.482 637.537 1001.78 645.136 1002.74 648.359L1008.47 676.778C1014.26 705.741 1025.88 764.771 1026.06 769.181C1026.25 773.591 1020.26 779.413 1017.25 781.772L1070.18 826.779C1074.12 821.612 1082.63 811.36 1085.19 811.688C1087.75 812.016 1102.77 825.261 1109.96 831.842H960.23Z" stroke="white" stroke-width="2"/>
<path d="M1053.37 612.919V562.122C1054.31 554.132 1062.68 555.124 1075.83 549.465C1086.35 544.938 1093.67 546.203 1096.02 547.401C1099.79 550.536 1108.53 558.015 1113.3 562.848C1119.26 568.889 1137.24 574.551 1146.97 577.685C1154.75 580.193 1158.93 584.278 1160.04 586.007L1160.69 601.571L1149.89 611.622L1117.79 606.542C1110.8 608.848 1092.65 614.908 1075.96 620.701C1059.27 626.494 1053.95 617.927 1053.37 612.919Z" stroke="white" stroke-width="2"/>
<path d="M1053.37 612.919V562.122C1054.31 554.132 1062.68 555.124 1075.83 549.465C1086.35 544.938 1093.67 546.203 1096.02 547.401C1099.79 550.536 1108.53 558.015 1113.3 562.848C1119.26 568.889 1137.24 574.551 1146.97 577.685C1154.75 580.193 1158.93 584.278 1160.04 586.007L1160.69 601.571L1149.89 611.622L1117.79 606.542C1110.8 608.848 1092.65 614.908 1075.96 620.701C1059.27 626.494 1053.95 617.927 1053.37 612.919Z" stroke="white" stroke-width="2"/>
<path d="M1070.28 522.284C1058.4 520.041 1056.26 504.944 1056.68 497.676L1085.44 468.811L1099.25 467.981C1108.55 466.735 1129.08 465.385 1138.18 464.866C1146.99 460.879 1156.39 467.419 1159.99 471.187L1178.76 476.76L1178.05 471.187L1185.89 471.835L1188.42 475.011L1193.54 476.177C1193.5 476.868 1193.82 479.832 1195.48 486.157C1197.14 492.482 1192.42 495.057 1189.85 495.554C1192.33 502.19 1187.38 503.374 1184.6 503.136L1178.76 498.146L1174.94 496.072L1168.46 487.259L1162.24 485.768C1157.46 486.459 1145.71 487.959 1136.9 488.425C1128.09 488.892 1125.71 497.217 1125.62 501.321C1122.05 500.44 1117.14 504.477 1115.13 506.605L1094.78 526.956C1091.56 526.333 1082.16 524.526 1070.28 522.284Z" stroke="white"/>
<path d="M1070.28 522.284C1058.4 520.041 1056.26 504.944 1056.68 497.676L1085.44 468.811L1099.25 467.981C1108.55 466.735 1129.08 465.385 1138.18 464.866C1146.99 460.879 1156.39 467.419 1159.99 471.187L1178.76 476.76L1178.05 471.187L1185.89 471.835L1188.42 475.011L1193.54 476.177C1193.5 476.868 1193.82 479.832 1195.48 486.157C1197.14 492.482 1192.42 495.057 1189.85 495.554C1192.33 502.19 1187.38 503.374 1184.6 503.136L1178.76 498.146L1174.94 496.072L1168.46 487.259L1162.24 485.768C1157.46 486.459 1145.71 487.959 1136.9 488.425C1128.09 488.892 1125.71 497.217 1125.62 501.321C1122.05 500.44 1117.14 504.477 1115.13 506.605L1094.78 526.956C1091.56 526.333 1082.16 524.526 1070.28 522.284Z" stroke="white" stroke-width="2"/>
<path d="M1070.28 522.284C1058.4 520.041 1056.26 504.944 1056.68 497.676L1085.44 468.811L1099.25 467.981C1108.55 466.735 1129.08 465.385 1138.18 464.866C1146.99 460.879 1156.39 467.419 1159.99 471.187L1178.76 476.76L1178.05 471.187L1185.89 471.835L1188.42 475.011L1193.54 476.177C1193.5 476.868 1193.82 479.832 1195.48 486.157C1197.14 492.482 1192.42 495.057 1189.85 495.554C1192.33 502.19 1187.38 503.374 1184.6 503.136L1178.76 498.146L1174.94 496.072L1168.46 487.259L1162.24 485.768C1157.46 486.459 1145.71 487.959 1136.9 488.425C1128.09 488.892 1125.71 497.217 1125.62 501.321C1122.05 500.44 1117.14 504.477 1115.13 506.605L1094.78 526.956C1091.56 526.333 1082.16 524.526 1070.28 522.284Z" stroke="white" stroke-width="2"/>
<path d="M1315.29 534.884L1296.52 554.935L1257.9 598.494C1255.3 601.589 1248.46 607.779 1241.9 607.779C1235.34 607.779 1226.98 601.589 1223.63 598.494C1222.34 599.581 1218.57 603.927 1213.75 612.619C1208.93 621.311 1217.01 626.447 1221.65 627.928C1233.04 630.76 1260.74 637.45 1280.42 641.559C1300.1 645.668 1308.33 631.528 1309.98 623.944L1325.86 543.181C1325.93 531.645 1318.84 532.843 1315.29 534.884Z" stroke="white" stroke-width="2"/>
<path d="M1315.29 534.884L1296.52 554.935L1257.9 598.494C1255.3 601.589 1248.46 607.779 1241.9 607.779C1235.34 607.779 1226.98 601.589 1223.63 598.494C1222.34 599.581 1218.57 603.927 1213.75 612.619C1208.93 621.311 1217.01 626.447 1221.65 627.928C1233.04 630.76 1260.74 637.45 1280.42 641.559C1300.1 645.668 1308.33 631.528 1309.98 623.944L1325.86 543.181C1325.93 531.645 1318.84 532.843 1315.29 534.884Z" stroke="white" stroke-width="2"/>
<path d="M1061.68 682.811V673.644L1086.93 666.874C1092.99 663.96 1109.77 657.538 1128.39 655.168C1147.01 652.799 1144.8 661.515 1141.37 666.169C1136.76 671.011 1127.15 681.119 1125.57 682.811C1123.99 684.504 1109.77 700.629 1102.86 708.48C1089.44 725.968 1075.08 727.237 1069.58 725.686L1068.31 717.365L1082.98 710.877L1077.2 682.811H1061.68Z" stroke="white" stroke-width="2"/>
<path d="M1061.68 682.811V673.644L1086.93 666.874C1092.99 663.96 1109.77 657.538 1128.39 655.168C1147.01 652.799 1144.8 661.515 1141.37 666.169C1136.76 671.011 1127.15 681.119 1125.57 682.811C1123.99 684.504 1109.77 700.629 1102.86 708.48C1089.44 725.968 1075.08 727.237 1069.58 725.686L1068.31 717.365L1082.98 710.877L1077.2 682.811H1061.68Z" stroke="white" stroke-width="2"/>
<path d="M1422.16 670.169V551.165C1417.44 552.775 1404.11 557.174 1388.52 561.889C1372.94 566.605 1368.19 573.251 1367.77 575.984C1366.7 583.075 1364.13 599.126 1362.38 606.609C1360.64 614.092 1359.61 623.053 1359.31 626.598C1363.1 640.129 1389.16 661.283 1401.72 670.169H1422.16Z" stroke="white" stroke-width="2"/>
<path d="M1422.16 670.169V551.165C1417.44 552.775 1404.11 557.174 1388.52 561.889C1372.94 566.605 1368.19 573.251 1367.77 575.984C1366.7 583.075 1364.13 599.126 1362.38 606.609C1360.64 614.092 1359.61 623.053 1359.31 626.598C1363.1 640.129 1389.16 661.283 1401.72 670.169H1422.16Z" stroke="white" stroke-width="2"/>
<path d="M1304.95 710.438C1298.98 706.285 1294.24 696.705 1292.62 692.433C1292.09 690.484 1294.28 688.401 1295.44 687.603C1306.85 681.074 1332.01 666.878 1341.31 662.328C1350.61 657.779 1358.96 658.495 1361.97 659.422C1368.36 665.403 1382.76 679.098 1389.33 686.024C1395.9 692.949 1388.38 696.722 1383.79 697.743C1371.81 699.531 1343.86 704.181 1327.91 708.474C1311.95 712.766 1305.95 711.572 1304.95 710.438Z" stroke="white" stroke-width="2"/>
<path d="M1304.95 710.438C1298.98 706.285 1294.24 696.705 1292.62 692.433C1292.09 690.484 1294.28 688.401 1295.44 687.603C1306.85 681.074 1332.01 666.878 1341.31 662.328C1350.61 657.779 1358.96 658.495 1361.97 659.422C1368.36 665.403 1382.76 679.098 1389.33 686.024C1395.9 692.949 1388.38 696.722 1383.79 697.743C1371.81 699.531 1343.86 704.181 1327.91 708.474C1311.95 712.766 1305.95 711.572 1304.95 710.438Z" stroke="white" stroke-width="2"/>
<path d="M960.398 430.648V375.005C965.999 383.77 977.572 403.176 979.055 410.682C980.539 418.188 967.236 427.12 960.398 430.648Z" stroke="white" stroke-width="2"/>
<path d="M960.398 430.648V375.005C965.999 383.77 977.572 403.176 979.055 410.682C980.539 418.188 967.236 427.12 960.398 430.648Z" stroke="white" stroke-width="2"/>
<path d="M1220 382.867H1000.94C1000.94 384.038 1002.6 389.797 1009.25 403.457C1017.56 420.533 1040.34 422.576 1043.7 423.16C1047.05 423.743 1061.5 424.473 1103.09 418.635C1144.69 412.798 1152.28 420.095 1159.72 421.7C1167.16 423.306 1182.05 427.976 1196.5 420.095C1208.06 413.79 1216.98 392.649 1220 382.867Z" stroke="white" stroke-width="2"/>
<path d="M1220 382.867H1000.94C1000.94 384.038 1002.6 389.797 1009.25 403.457C1017.56 420.533 1040.34 422.576 1043.7 423.16C1047.05 423.743 1061.5 424.473 1103.09 418.635C1144.69 412.798 1152.28 420.095 1159.72 421.7C1167.16 423.306 1182.05 427.976 1196.5 420.095C1208.06 413.79 1216.98 392.649 1220 382.867Z" stroke="white" stroke-width="2"/>
<path d="M1372.83 383.16H1256.59V409.924C1256.59 420.276 1262.46 423.631 1265.4 424.014C1297.84 429.65 1317.45 427.8 1323.2 426.171C1344.25 421.11 1365.06 395.388 1372.83 383.16Z" stroke="white" stroke-width="2"/>
<path d="M1372.83 383.16H1256.59V409.924C1256.59 420.276 1262.46 423.631 1265.4 424.014C1297.84 429.65 1317.45 427.8 1323.2 426.171C1344.25 421.11 1365.06 395.388 1372.83 383.16Z" stroke="white" stroke-width="2"/>
<path d="M1423.11 376.225H1413.61L1378.41 428.278L1376.04 435.525C1376.66 443.772 1378.01 461.965 1378.41 468.762C1378.91 477.259 1383.66 492.378 1391.53 501.999C1397.83 509.697 1415.21 515.348 1423.11 517.211V376.225Z" stroke="white" stroke-width="2"/>
<path d="M1423.11 376.225H1413.61L1378.41 428.278L1376.04 435.525C1376.66 443.772 1378.01 461.965 1378.41 468.762C1378.91 477.259 1383.66 492.378 1391.53 501.999C1397.83 509.697 1415.21 515.348 1423.11 517.211V376.225Z" stroke="white" stroke-width="2"/>
<path d="M1230.84 687.512C1226.98 688.503 1215.82 693.993 1210.72 696.615C1206.24 683.418 1191.99 683.717 1185.42 685.516C1176.38 687.672 1156.7 692.563 1150.25 694.875C1143.81 697.187 1140.83 705.197 1140.14 708.913L1130.71 713.111C1119.7 714.377 1120.57 708.867 1122.38 705.954L1130.71 697.971C1137.13 690.953 1151.36 675.442 1156.86 669.552C1162.37 663.661 1174.52 665.767 1179.91 667.556C1191.31 669.919 1216.99 675.401 1228.5 678.428C1242.88 682.213 1235.65 686.273 1230.84 687.512Z" stroke="white" stroke-width="2"/>
<path d="M1230.84 687.512C1226.98 688.503 1215.82 693.993 1210.72 696.615C1206.24 683.418 1191.99 683.717 1185.42 685.516C1176.38 687.672 1156.7 692.563 1150.25 694.875C1143.81 697.187 1140.83 705.197 1140.14 708.913L1130.71 713.111C1119.7 714.377 1120.57 708.867 1122.38 705.954L1130.71 697.971C1137.13 690.953 1151.36 675.442 1156.86 669.552C1162.37 663.661 1174.52 665.767 1179.91 667.556C1191.31 669.919 1216.99 675.401 1228.5 678.428C1242.88 682.213 1235.65 686.273 1230.84 687.512Z" stroke="white" stroke-width="2"/>
</g>
<path d="M960.357 588.217V481.988C962.436 482.554 970.326 484.998 985.253 490.254C1000.18 495.51 1004.96 505.409 1005.49 509.702C1006.28 513.863 1008.38 525.128 1010.48 536.901C1012.58 548.675 1008.03 555.21 1005.49 557.006C995.292 576.138 971.153 585.785 960.357 588.217Z" stroke="white" stroke-width="2"/>
<path d="M960.357 588.217V481.988C962.436 482.554 970.326 484.998 985.253 490.254C1000.18 495.51 1004.96 505.409 1005.49 509.702C1006.28 513.863 1008.38 525.128 1010.48 536.901C1012.58 548.675 1008.03 555.21 1005.49 557.006C995.292 576.138 971.153 585.785 960.357 588.217Z" stroke="white" stroke-width="2"/>
<path d="M1194.24 568.935L1175.65 576.212L1176.15 612.299C1182.47 624.599 1192.57 619.381 1196.84 615.235L1213.75 591.613C1211.42 590.239 1205.25 586.358 1199.21 581.829C1193.17 577.301 1193.38 571.346 1194.24 568.935Z" stroke="white" stroke-width="2"/>
<path d="M1194.24 568.935L1175.65 576.212L1176.15 612.299C1182.47 624.599 1192.57 619.381 1196.84 615.235L1213.75 591.613C1211.42 590.239 1205.25 586.358 1199.21 581.829C1193.17 577.301 1193.38 571.346 1194.24 568.935Z" stroke="white" stroke-width="2"/>
<path d="M1143.03 723.486C1131.73 725.876 1108.72 731.107 1107.11 732.917C1105.1 735.18 1096.42 740.459 1104.84 751.268L1117.92 762.831H1307.72H1500.22V695.669H1453.3V691.502H1417.51C1414.92 693.455 1411.29 699.022 1417.51 705.669L1423.58 713.445L1425.07 714.936C1422.5 717.999 1418.61 726.07 1423.58 733.847C1428.56 741.625 1430.16 742.715 1430.33 742.288L1428.15 743.343L1401.47 709.881C1395.34 708.952 1379.07 708.57 1363.03 714.479C1362.96 717.669 1363.48 725.527 1366.2 731.436C1355.24 732.968 1332.82 736.621 1330.77 738.972L1327.68 721.563L1324.83 720.928C1317.56 724.292 1301.49 729.001 1295.37 720.928C1289.24 712.854 1281.45 701.4 1278.32 696.683C1277.12 694.672 1270.01 691.857 1251.17 696.683C1232.33 701.509 1218.19 705.499 1213.47 706.891C1213.22 713.062 1207.82 725.609 1188.26 726.431L1165.63 732.831C1159.71 733.725 1146.89 733.107 1143.03 723.486Z" stroke="white" stroke-width="2"/>
<path d="M1143.03 723.486C1131.73 725.876 1108.72 731.107 1107.11 732.917C1105.1 735.18 1096.42 740.459 1104.84 751.268L1117.92 762.831H1307.72H1500.22V695.669H1453.3V691.502H1417.51C1414.92 693.455 1411.29 699.022 1417.51 705.669L1423.58 713.445L1425.07 714.936C1422.5 717.999 1418.61 726.07 1423.58 733.847C1428.56 741.625 1430.16 742.715 1430.33 742.288L1428.15 743.343L1401.47 709.881C1395.34 708.952 1379.07 708.57 1363.03 714.479C1362.96 717.669 1363.48 725.527 1366.2 731.436C1355.24 732.968 1332.82 736.621 1330.77 738.972L1327.68 721.563L1324.83 720.928C1317.56 724.292 1301.49 729.001 1295.37 720.928C1289.24 712.854 1281.45 701.4 1278.32 696.683C1277.12 694.672 1270.01 691.857 1251.17 696.683C1232.33 701.509 1218.19 705.499 1213.47 706.891C1213.22 713.062 1207.82 725.609 1188.26 726.431L1165.63 732.831C1159.71 733.725 1146.89 733.107 1143.03 723.486Z" stroke="white" stroke-width="2"/>
<path d="M1210.85 472.795L1204.9 484.202L1232.42 497.746C1235.04 499.165 1240.92 501.982 1243.46 501.891C1246.01 501.8 1272.94 497.913 1286.09 495.981L1320.07 490.412C1320.16 479.865 1311.17 476.167 1306.66 475.637L1283.24 473.591C1264.57 472.151 1225.67 469.204 1219.48 468.931C1213.3 468.658 1211.15 471.394 1210.85 472.795Z" stroke="white" stroke-width="2"/>
<path d="M1210.85 472.795L1204.9 484.202L1232.42 497.746C1235.04 499.165 1240.92 501.982 1243.46 501.891C1246.01 501.8 1272.94 497.913 1286.09 495.981L1320.07 490.412C1320.16 479.865 1311.17 476.167 1306.66 475.637L1283.24 473.591C1264.57 472.151 1225.67 469.204 1219.48 468.931C1213.3 468.658 1211.15 471.394 1210.85 472.795Z" stroke="white" stroke-width="2"/>
<path d="M960.23 831.842L960.596 620.511C965.751 622.728 978.441 628.314 987.962 632.925C997.482 637.537 1001.78 645.136 1002.74 648.359L1008.47 676.778C1014.26 705.741 1025.88 764.771 1026.06 769.181C1026.25 773.591 1020.26 779.413 1017.25 781.772L1070.18 826.779C1074.12 821.612 1082.63 811.36 1085.19 811.688C1087.75 812.016 1102.77 825.261 1109.96 831.842H960.23Z" stroke="white" stroke-width="2"/>
<path d="M960.23 831.842L960.596 620.511C965.751 622.728 978.441 628.314 987.962 632.925C997.482 637.537 1001.78 645.136 1002.74 648.359L1008.47 676.778C1014.26 705.741 1025.88 764.771 1026.06 769.181C1026.25 773.591 1020.26 779.413 1017.25 781.772L1070.18 826.779C1074.12 821.612 1082.63 811.36 1085.19 811.688C1087.75 812.016 1102.77 825.261 1109.96 831.842H960.23Z" stroke="white" stroke-width="2"/>
<path d="M1053.37 612.919V562.122C1054.31 554.132 1062.68 555.124 1075.83 549.465C1086.35 544.938 1093.67 546.203 1096.02 547.401C1099.79 550.536 1108.53 558.015 1113.3 562.848C1119.26 568.889 1137.24 574.551 1146.97 577.685C1154.75 580.193 1158.93 584.278 1160.04 586.007L1160.69 601.571L1149.89 611.622L1117.79 606.542C1110.8 608.848 1092.65 614.908 1075.96 620.701C1059.27 626.494 1053.95 617.927 1053.37 612.919Z" stroke="white" stroke-width="2"/>
<path d="M1053.37 612.919V562.122C1054.31 554.132 1062.68 555.124 1075.83 549.465C1086.35 544.938 1093.67 546.203 1096.02 547.401C1099.79 550.536 1108.53 558.015 1113.3 562.848C1119.26 568.889 1137.24 574.551 1146.97 577.685C1154.75 580.193 1158.93 584.278 1160.04 586.007L1160.69 601.571L1149.89 611.622L1117.79 606.542C1110.8 608.848 1092.65 614.908 1075.96 620.701C1059.27 626.494 1053.95 617.927 1053.37 612.919Z" stroke="white" stroke-width="2"/>
<path d="M1070.28 522.284C1058.4 520.041 1056.26 504.944 1056.68 497.676L1085.44 468.811L1099.25 467.981C1108.55 466.735 1129.08 465.385 1138.18 464.866C1146.99 460.879 1156.39 467.419 1159.99 471.187L1178.76 476.76L1178.05 471.187L1185.89 471.835L1188.42 475.011L1193.54 476.177C1193.5 476.868 1193.82 479.832 1195.48 486.157C1197.14 492.482 1192.42 495.057 1189.85 495.554C1192.33 502.19 1187.38 503.374 1184.6 503.136L1178.76 498.146L1174.94 496.072L1168.46 487.259L1162.24 485.768C1157.46 486.459 1145.71 487.959 1136.9 488.425C1128.09 488.892 1125.71 497.217 1125.62 501.321C1122.05 500.44 1117.14 504.477 1115.13 506.605L1094.78 526.956C1091.56 526.333 1082.16 524.526 1070.28 522.284Z" stroke="white"/>
<path d="M1070.28 522.284C1058.4 520.041 1056.26 504.944 1056.68 497.676L1085.44 468.811L1099.25 467.981C1108.55 466.735 1129.08 465.385 1138.18 464.866C1146.99 460.879 1156.39 467.419 1159.99 471.187L1178.76 476.76L1178.05 471.187L1185.89 471.835L1188.42 475.011L1193.54 476.177C1193.5 476.868 1193.82 479.832 1195.48 486.157C1197.14 492.482 1192.42 495.057 1189.85 495.554C1192.33 502.19 1187.38 503.374 1184.6 503.136L1178.76 498.146L1174.94 496.072L1168.46 487.259L1162.24 485.768C1157.46 486.459 1145.71 487.959 1136.9 488.425C1128.09 488.892 1125.71 497.217 1125.62 501.321C1122.05 500.44 1117.14 504.477 1115.13 506.605L1094.78 526.956C1091.56 526.333 1082.16 524.526 1070.28 522.284Z" stroke="white" stroke-width="2"/>
<path d="M1070.28 522.284C1058.4 520.041 1056.26 504.944 1056.68 497.676L1085.44 468.811L1099.25 467.981C1108.55 466.735 1129.08 465.385 1138.18 464.866C1146.99 460.879 1156.39 467.419 1159.99 471.187L1178.76 476.76L1178.05 471.187L1185.89 471.835L1188.42 475.011L1193.54 476.177C1193.5 476.868 1193.82 479.832 1195.48 486.157C1197.14 492.482 1192.42 495.057 1189.85 495.554C1192.33 502.19 1187.38 503.374 1184.6 503.136L1178.76 498.146L1174.94 496.072L1168.46 487.259L1162.24 485.768C1157.46 486.459 1145.71 487.959 1136.9 488.425C1128.09 488.892 1125.71 497.217 1125.62 501.321C1122.05 500.44 1117.14 504.477 1115.13 506.605L1094.78 526.956C1091.56 526.333 1082.16 524.526 1070.28 522.284Z" stroke="white" stroke-width="2"/>
<path d="M1315.29 534.884L1296.52 554.935L1257.9 598.494C1255.3 601.589 1248.46 607.779 1241.9 607.779C1235.34 607.779 1226.98 601.589 1223.63 598.494C1222.34 599.581 1218.57 603.927 1213.75 612.619C1208.93 621.311 1217.01 626.447 1221.65 627.928C1233.04 630.76 1260.74 637.45 1280.42 641.559C1300.1 645.668 1308.33 631.528 1309.98 623.944L1325.86 543.181C1325.93 531.645 1318.84 532.843 1315.29 534.884Z" stroke="white" stroke-width="2"/>
<path d="M1315.29 534.884L1296.52 554.935L1257.9 598.494C1255.3 601.589 1248.46 607.779 1241.9 607.779C1235.34 607.779 1226.98 601.589 1223.63 598.494C1222.34 599.581 1218.57 603.927 1213.75 612.619C1208.93 621.311 1217.01 626.447 1221.65 627.928C1233.04 630.76 1260.74 637.45 1280.42 641.559C1300.1 645.668 1308.33 631.528 1309.98 623.944L1325.86 543.181C1325.93 531.645 1318.84 532.843 1315.29 534.884Z" stroke="white" stroke-width="2"/>
<path d="M1061.68 682.811V673.644L1086.93 666.874C1092.99 663.96 1109.77 657.538 1128.39 655.168C1147.01 652.799 1144.8 661.515 1141.37 666.169C1136.76 671.011 1127.15 681.119 1125.57 682.811C1123.99 684.504 1109.77 700.629 1102.86 708.48C1089.44 725.968 1075.08 727.237 1069.58 725.686L1068.31 717.365L1082.98 710.877L1077.2 682.811H1061.68Z" stroke="white" stroke-width="2"/>
<path d="M1061.68 682.811V673.644L1086.93 666.874C1092.99 663.96 1109.77 657.538 1128.39 655.168C1147.01 652.799 1144.8 661.515 1141.37 666.169C1136.76 671.011 1127.15 681.119 1125.57 682.811C1123.99 684.504 1109.77 700.629 1102.86 708.48C1089.44 725.968 1075.08 727.237 1069.58 725.686L1068.31 717.365L1082.98 710.877L1077.2 682.811H1061.68Z" stroke="white" stroke-width="2"/>
<path d="M1422.16 670.169V551.165C1417.44 552.775 1404.11 557.174 1388.52 561.889C1372.94 566.605 1368.19 573.251 1367.77 575.984C1366.7 583.075 1364.13 599.126 1362.38 606.609C1360.64 614.092 1359.61 623.053 1359.31 626.598C1363.1 640.129 1389.16 661.283 1401.72 670.169H1422.16Z" stroke="white" stroke-width="2"/>
<path d="M1422.16 670.169V551.165C1417.44 552.775 1404.11 557.174 1388.52 561.889C1372.94 566.605 1368.19 573.251 1367.77 575.984C1366.7 583.075 1364.13 599.126 1362.38 606.609C1360.64 614.092 1359.61 623.053 1359.31 626.598C1363.1 640.129 1389.16 661.283 1401.72 670.169H1422.16Z" stroke="white" stroke-width="2"/>
<path d="M1304.95 710.438C1298.98 706.285 1294.24 696.705 1292.62 692.433C1292.09 690.484 1294.28 688.401 1295.44 687.603C1306.85 681.074 1332.01 666.878 1341.31 662.328C1350.61 657.779 1358.96 658.495 1361.97 659.422C1368.36 665.403 1382.76 679.098 1389.33 686.024C1395.9 692.949 1388.38 696.722 1383.79 697.743C1371.81 699.531 1343.86 704.181 1327.91 708.474C1311.95 712.766 1305.95 711.572 1304.95 710.438Z" stroke="white" stroke-width="2"/>
<path d="M1304.95 710.438C1298.98 706.285 1294.24 696.705 1292.62 692.433C1292.09 690.484 1294.28 688.401 1295.44 687.603C1306.85 681.074 1332.01 666.878 1341.31 662.328C1350.61 657.779 1358.96 658.495 1361.97 659.422C1368.36 665.403 1382.76 679.098 1389.33 686.024C1395.9 692.949 1388.38 696.722 1383.79 697.743C1371.81 699.531 1343.86 704.181 1327.91 708.474C1311.95 712.766 1305.95 711.572 1304.95 710.438Z" stroke="white" stroke-width="2"/>
<path d="M960.398 430.648V375.005C965.999 383.77 977.572 403.176 979.055 410.682C980.539 418.188 967.236 427.12 960.398 430.648Z" stroke="white" stroke-width="2"/>
<path d="M960.398 430.648V375.005C965.999 383.77 977.572 403.176 979.055 410.682C980.539 418.188 967.236 427.12 960.398 430.648Z" stroke="white" stroke-width="2"/>
<path d="M1220 382.867H1000.94C1000.94 384.038 1002.6 389.797 1009.25 403.457C1017.56 420.533 1040.34 422.576 1043.7 423.16C1047.05 423.743 1061.5 424.473 1103.09 418.635C1144.69 412.798 1152.28 420.095 1159.72 421.7C1167.16 423.306 1182.05 427.976 1196.5 420.095C1208.06 413.79 1216.98 392.649 1220 382.867Z" stroke="white" stroke-width="2"/>
<path d="M1220 382.867H1000.94C1000.94 384.038 1002.6 389.797 1009.25 403.457C1017.56 420.533 1040.34 422.576 1043.7 423.16C1047.05 423.743 1061.5 424.473 1103.09 418.635C1144.69 412.798 1152.28 420.095 1159.72 421.7C1167.16 423.306 1182.05 427.976 1196.5 420.095C1208.06 413.79 1216.98 392.649 1220 382.867Z" stroke="white" stroke-width="2"/>
<path d="M1372.83 383.16H1256.59V409.924C1256.59 420.276 1262.46 423.631 1265.4 424.014C1297.84 429.65 1317.45 427.8 1323.2 426.171C1344.25 421.11 1365.06 395.388 1372.83 383.16Z" stroke="white" stroke-width="2"/>
<path d="M1372.83 383.16H1256.59V409.924C1256.59 420.276 1262.46 423.631 1265.4 424.014C1297.84 429.65 1317.45 427.8 1323.2 426.171C1344.25 421.11 1365.06 395.388 1372.83 383.16Z" stroke="white" stroke-width="2"/>
<path d="M1423.11 376.225H1413.61L1378.41 428.278L1376.04 435.525C1376.66 443.772 1378.01 461.965 1378.41 468.762C1378.91 477.259 1383.66 492.378 1391.53 501.999C1397.83 509.697 1415.21 515.348 1423.11 517.211V376.225Z" stroke="white" stroke-width="2"/>
<path d="M1423.11 376.225H1413.61L1378.41 428.278L1376.04 435.525C1376.66 443.772 1378.01 461.965 1378.41 468.762C1378.91 477.259 1383.66 492.378 1391.53 501.999C1397.83 509.697 1415.21 515.348 1423.11 517.211V376.225Z" stroke="white" stroke-width="2"/>
<path d="M1230.84 687.512C1226.98 688.503 1215.82 693.993 1210.72 696.615C1206.24 683.418 1191.99 683.717 1185.42 685.516C1176.38 687.672 1156.7 692.563 1150.25 694.875C1143.81 697.187 1140.83 705.197 1140.14 708.913L1130.71 713.111C1119.7 714.377 1120.57 708.867 1122.38 705.954L1130.71 697.971C1137.13 690.953 1151.36 675.442 1156.86 669.552C1162.37 663.661 1174.52 665.767 1179.91 667.556C1191.31 669.919 1216.99 675.401 1228.5 678.428C1242.88 682.213 1235.65 686.273 1230.84 687.512Z" stroke="white" stroke-width="2"/>
<path d="M1230.84 687.512C1226.98 688.503 1215.82 693.993 1210.72 696.615C1206.24 683.418 1191.99 683.717 1185.42 685.516C1176.38 687.672 1156.7 692.563 1150.25 694.875C1143.81 697.187 1140.83 705.197 1140.14 708.913L1130.71 713.111C1119.7 714.377 1120.57 708.867 1122.38 705.954L1130.71 697.971C1137.13 690.953 1151.36 675.442 1156.86 669.552C1162.37 663.661 1174.52 665.767 1179.91 667.556C1191.31 669.919 1216.99 675.401 1228.5 678.428C1242.88 682.213 1235.65 686.273 1230.84 687.512Z" stroke="white" stroke-width="2"/>
<defs>
<filter id="filter0_f_133_268759" x="316.343" y="238.16" width="454.887" height="419.576" filterUnits="userSpaceOnUse" color-interpolation-filters="sRGB">
<feFlood flood-opacity="0" result="BackgroundImageFix"/>
<feBlend mode="normal" in="SourceGraphic" in2="BackgroundImageFix" result="shape"/>
<feGaussianBlur stdDeviation="2.5" result="effect1_foregroundBlur_133_268759"/>
</filter>
<filter id="filter1_f_133_268759" x="953.529" y="365.883" width="553.394" height="472.659" filterUnits="userSpaceOnUse" color-interpolation-filters="sRGB">
<feFlood flood-opacity="0" result="BackgroundImageFix"/>
<feBlend mode="normal" in="SourceGraphic" in2="BackgroundImageFix" result="shape"/>
<feGaussianBlur stdDeviation="2.85" result="effect1_foregroundBlur_133_268759"/>
</filter>
</defs>
</svg>
